<svg xmlns="http://www.w3.org/2000/svg" viewBox="0 0 299.46 130"><defs><style>.cls-1{fill:#fff;}</style></defs><title>logo blancoRecurso 7</title><g id="Capa_2" data-name="Capa 2"><g id="Controles_bootstrap" data-name="Controles bootstrap"><polygon class="cls-1" points="268 85.2 277.44 97 281.37 40.36 299.46 40.36 292.38 34.07 271.14 34.07 268 85.2"/><polygon class="cls-1" points="277.31 0 281.97 8.07 286.63 16.14 277.31 16.14 267.99 16.14 272.65 8.07 277.31 0"/><polygon class="cls-1" points="277.31 32.27 281.97 24.2 286.63 16.13 277.31 16.13 267.99 16.13 272.65 24.2 277.31 32.27"/><polygon class="cls-1" points="132.9 6 172 55.52 132.8 99.84 152.93 56.4 132.9 6"/><polygon class="cls-1" points="113.1 6 74 55.52 113.2 99.84 93.07 56.4 113.1 6"/><polygon class="cls-1" points="123.41 35.31 129.47 45.82 135.54 56.33 123.41 56.33 111.28 56.33 117.34 45.82 123.41 35.31"/><polygon class="cls-1" points="123.41 77.32 129.47 66.82 135.54 56.31 123.41 56.31 111.28 56.31 117.34 66.82 123.41 77.32"/><path class="cls-1" d="M4.93,8l16.28,9.37,1.48,57.71s18.74,12.82,50.31-1V98.76S52.28,84,0,96.78C0,96.78,17.76,55.35,4.93,8Z"/><polygon class="cls-1" points="172 17.35 195.22 17.35 187.24 98.35 200.29 85.96 203.94 54.04 209 9.72 180.71 9.72 172 17.35"/><polygon class="cls-1" points="198.32 50.41 203.03 35.62 227.66 88.49 245.01 81.83 240.54 90.47 220.17 98.29 198.32 50.41"/><polyline class="cls-1" points="235.65 19.65 253 26.31 248.53 17.67 228.16 9.85 206.31 57.73 211.02 72.52 235.65 19.65"/><path class="cls-1" d="M190.62,110q6.74,0,9.21,4.77a9.28,9.28,0,0,1,1.11,4.77q0,5.22-3.26,8A11.5,11.5,0,0,1,190,130H182l1-.33q.88-.4,1-.91V111.45a.54.54,0,0,0-.14-.51A3.26,3.26,0,0,0,182,110Zm-1.29,18.85a9.3,9.3,0,0,0,6.36-2.62,8.67,8.67,0,0,0,3.12-6.66,8.53,8.53,0,0,0-2.28-6.3,8.21,8.21,0,0,0-6.12-2.27,6.24,6.24,0,0,0-4.08,1.31v15.63A4,4,0,0,0,189.33,128.85Z"/><path class="cls-1" d="M214.7,110.35l.75-.35-.75,3.65a2.72,2.72,0,0,0-.32-1.08,1.85,1.85,0,0,0-1.77-1.09h-3.8V119H213a3.19,3.19,0,0,0,2-.66l-.49,3.92a2.18,2.18,0,0,0-.34-1.06,2.32,2.32,0,0,0-2.15-1.05h-3.19v7.42a4.19,4.19,0,0,0,.92.84,4.43,4.43,0,0,0,2.59.84,3.53,3.53,0,0,0,2.61-1.32,5.76,5.76,0,0,0,.93-1.32l-.4,3.45H204.79a3.31,3.31,0,0,0,.85-.46,1.87,1.87,0,0,0,.86-1.51q0-1.39,0-16.32a3,3,0,0,0-2-1.36Z"/><path class="cls-1" d="M221.45,125a3.38,3.38,0,0,0,1.41,2.93,4.09,4.09,0,0,0,2.44.76,4.43,4.43,0,0,0,2.48-.83,2.76,2.76,0,0,0,1.44-2.32,4.58,4.58,0,0,0-1.15-2.8,26.69,26.69,0,0,0-2.8-2.76,21.76,21.76,0,0,1-2.74-2.76,4.81,4.81,0,0,1-1.1-2.94,3.82,3.82,0,0,1,1.4-3,5.72,5.72,0,0,1,3.92-1.33,9.9,9.9,0,0,1,3.15.38,1.19,1.19,0,0,1,.64.38l-.62,3.46a3.45,3.45,0,0,0-.71-2,2.84,2.84,0,0,0-2.4-1.24,4.07,4.07,0,0,0-2.51.66,2.2,2.2,0,0,0-.83,1.84q0,2,3.42,4.77a24.79,24.79,0,0,1,2.78,2.52,5.32,5.32,0,0,1,1.48,3.48,5.11,5.11,0,0,1-2.53,4.45,7.6,7.6,0,0,1-4.24,1.33,4.26,4.26,0,0,1-2.46-.71,2.73,2.73,0,0,1-.76-.72A10.91,10.91,0,0,1,221.45,125Z"/><path class="cls-1" d="M239.09,128.15a1.9,1.9,0,0,0,.88,1.41,3.17,3.17,0,0,0,.82.44h-5.73a3,3,0,0,0,.81-.44,1.89,1.89,0,0,0,.89-1.41V111.85a1.89,1.89,0,0,0-.89-1.41,3,3,0,0,0-.81-.44h5.73a3.17,3.17,0,0,0-.82.44,1.9,1.9,0,0,0-.88,1.41Z"/><path class="cls-1" d="M259.28,121.71a.59.59,0,0,0-.15-.52,3.28,3.28,0,0,0-1.87-1h6.4a3.28,3.28,0,0,0-1.87,1,.55.55,0,0,0-.15.52v6.9a5.17,5.17,0,0,1-1.41.69,14.14,14.14,0,0,1-4.7.69,12.12,12.12,0,0,1-7.86-2.37q-3.34-2.7-3.34-8a9.21,9.21,0,0,1,1.14-4.79q2.53-4.8,9.42-4.8a45,45,0,0,1,7,.84l-.67,4.42a5.09,5.09,0,0,0-1.06-2.19,6,6,0,0,0-5-2.2,8.43,8.43,0,0,0-6.27,2.31,8.75,8.75,0,0,0-2.32,6.45,8.47,8.47,0,0,0,3.18,6.66,9.76,9.76,0,0,0,6.5,2.52,4.09,4.09,0,0,0,3.08-.93Z"/><path class="cls-1" d="M287.5,110a3,3,0,0,0-.81.44,1.89,1.89,0,0,0-.89,1.41V130l-14.54-15.09v13.24a1.89,1.89,0,0,0,.89,1.41,3,3,0,0,0,.81.44h-5.73a3,3,0,0,0,.81-.44,1.89,1.89,0,0,0,.89-1.41V110l14.55,15.27V111.85a1.89,1.89,0,0,0-.89-1.41,3,3,0,0,0-.81-.44Z"/></g></g></svg>