<?xml version="1.0" encoding="utf-8"?>
<!-- Generator: Adobe Illustrator 21.1.0, SVG Export Plug-In . SVG Version: 6.00 Build 0)  -->
<svg version="1.1" id="Pagina_inicial_Escritorio" xmlns="http://www.w3.org/2000/svg" xmlns:xlink="http://www.w3.org/1999/xlink"
	 x="0px" y="0px" viewBox="0 0 346.6 316" style="enable-background:new 0 0 346.6 316;" xml:space="preserve">
<style type="text/css">
	.st0{fill:#D1ECFB;}
	.st1{fill:#57D357;}
	.st2{fill:#103754;}
	.st3{fill:none;}
	.st4{fill:#BB8844;}
	.st5{fill:#C1E2DE;}
	.st6{fill:#535B5B;}
	.st7{fill:#FFFFFF;}
	.st8{fill:#839494;}
	.st9{fill:#B7C9CB;}
</style>
<title>mundo</title>
<g id="Porque_somos_tu_mejor_elección">
	<path class="st0" d="M188.5,0c-87.1,0-158,70.9-158,158s70.9,158,158,158s158.1-70.8,158.1-157.9S275.6,0,188.5,0z"/>
	<path class="st1" d="M77.2,205.1c-0.2,0.5,2.6,3.3,3.6,4.3c1.6,2.2,2.9,4.7,3.9,7.3c0.3,1.6,0.3,3.1,0,4.7c0.1,0.8,0.3,1.6,0.6,2.4
		c0.1,0.6-0.9,5.1-0.6,7s-2.2,7.6-2,10.6s1.4,6.6,1.8,6.4s0.7,2.6-0.1,3s-1.9,2.6-1.4,2.7s0,2.4,0.1,3.3s0.9,6.9,1,8.4
		s2.3,5.1,2.7,6.4s0.9,3.5,1,3.9l0.3,0.8c0.8,0.2,1.6,0.6,2.3,1c0.5,0.3,3.9,0.1,5-0.1s0.1-1.2-0.3-1.7s-0.9-3.2-1.5-3.4
		s-0.8-3.6-0.3-4.4s2.5-1.9,2.7-2.6s0.2-3.5-0.2-4s0.1-4-0.2-5.8s3.1-3.4,3.3-4.8s4-3,4.8-3.6s1.6-4.8,1.1-5.6s1.4-1.6,2.2-1.6
		l2-0.6c0.2,0,1.2-1.8,1.7-2.2s1.6-4.7,2.5-5.3c0.9-1.1,1.5-2.5,1.7-4c0.4-1.3,1-2.5,1.9-3.6c0.5-0.7,4-2.3,4.7-2.5s1.6-5.9,1.8-8
		c0.4-1.9,0.8-3.7,1.4-5.5c0-0.7,1.1-1.2,1.4-1.5s1-2.8,1.6-3.4c0.6-0.6,2.5-3.1,2.5-3.6c0.1-1.1,0.4-2.2,0.7-3.2v-3.5
		c-0.6-1.7-2.5-3.9-3-3.3s-2.6-1.5-3.7-1.9c-1.5-0.4-3-0.7-4.5-0.7c-0.7,0-3.1-1.9-4.2-2.3c-1.5-0.3-2.9-0.6-4.3-1.1
		c-0.5-0.3-1.1-4.4-3.4-5.8s-6.1-4.5-6.6-5.7s-4.7-3.5-6-4.3s-3.3-0.9-3.5-0.6s-1.9-2.3-2.7-3s-3.4-1.2-3.5-0.7s-1.8,0.2-2.2-0.2
		s-1.7,0.2-2.4,0.5s-2.7,3.4-3.7,4.2s-2.2-0.7-2.8-1c-1.3,0-2.6,0.3-3.7,1c-0.7,0.5-2.2-3.4-1.8-5.2s-1.6-5.3-3.2-5.5
		s-1.9-3.9-1.7-5.2s-2.7-2.3-3.5-2.4s-2.6,1.8-3,2.8s-7.3-1.2-6.5-5.5s4.1-8.5,4.9-9s5.2-0.7,6.2-0.1c0.6,0.3,1.4,0.3,2-0.2
		c1.7-0.1,3.3,0,4.9,0.5c1,0.5,2.6,4.7,3.7,5.1s1.5-2.7,1.7-3.5c-0.1-1.1-0.4-2.3-0.8-3.3c-0.2-0.6,1.8-5.7,3.5-6.5s3.5-3.7,3.3-4.2
		s1.4-0.9,1.7-1.1s0-4.3,0.6-5.2c1.5-1.3,3.1-2.4,4.9-3.2c1-0.5,1.7-3,1.4-3.5s2.6-3,4.2-3.5s2.8,0.9,2.5,1l3.3-1.8
		c0.9-0.6,0-2.6-0.7-3.2s-0.2-2.7,0.6-3c0.8-0.6,1.3-1.5,1.2-2.5c-0.2-0.3,3.4,0.3,4.8-0.7s0.3,2.4-0.6,3.9
		c-0.5,0.7-0.3,1.7,0.4,2.2c0.3,0.2,0.6,0.3,1,0.3c0.7,0,1.3,0.4,1.5,1.1c0.1,0.3,1.5-0.5,2.4,0s1.5-1.2,1.5-2s-2.2-2.3-2.5-3.3
		c-0.3-2.5-0.5-4.9-0.5-7.4c0-1-1.5-2.8-1.9-2.5s-1.4-2.8-2.2-3.5c-0.6-0.8-0.9-1.7-0.9-2.7c0-0.5-2.5-3.2-3.2-4.4s-1.5-1-1.6-0.5
		s-1.8,0.7-2.6,0.6s-1.4-3-1.4-4s-3.3-1.2-3.9-2.2s-2.7-0.5-3.1-1c-0.7-0.6-1.6-1-2.6-0.9c-0.3,0.2-0.2,8.1-0.6,10.1s-2.2,4-2.8,3.9
		s-0.2,1.5,0.1,1.4s-1.2,2.3-1.5,3.9s-1.8,0-2-1.5s-1.8-3.4-2.2-3s-1.4-0.6-1.8-0.2s-3.4-1.7-4.7-2.4s-1.8-4.3-2.6-4.7
		s-0.1-0.8-0.1-1.4s2.4-2.7,3.1-3.5c1.3-1.7,2.8-3.4,4.3-5c1-0.8,1.8-2.6,1.6-3s4.4-1.8,5.7-2.2s2.3-3.9,2.5-4.9
		c0-1.2-0.5-2.3-1.4-3.1c-0.6-0.2,1.7-0.3,2.5,0.1s3.1-0.7,4.1-0.2l4.2,2.5L92.9,62l-0.6,4.3c-3.6,1.5-4.7,4.1-3.4,4s7,2.5,8.6,3.6
		s2.2-1.7,2.6-2.6c0.4-1.4,0.4-2.8,0-4.2c-0.5-0.6,1.8-0.3,2.5,0.2s1.4-0.6,1.8-0.9s0.7-2.6,1-3.1s-1-0.9-1.1-1.6s-2.6-1.7-3.4-2.2
		c-0.8-0.6-1-1.6-0.6-2.5c0.3-0.3-0.2-2.6-0.7-3.3s-3.1-1.4-4-1.4s-1.8-2-2.4-2.4c-1.6-0.4-3.3-0.6-4.9-0.5
		c-0.8,0.2-2.4-2.5-3.9-1.6s-3-0.9-3.6-1.4s-4.1,3.3-4,5.8s1.2,5,1.8,5.1s-0.1,2.4-0.7,3.1s-2-0.7-1.5-1.2s-1.5-3.3-2.2-4.3
		s-2.3-1.5-3.4-1.9l-2,2.3c0.3,1,0.4,2.1,0.2,3.1c-0.5,1.6-1.8,1.8-1.8,1.1c-0.4-0.4-0.9-0.6-1.5-0.6c-19.7,23.5-32,52.2-35.6,82.6
		c0.8,0.7,1.4,1.6,1.8,2.6c0.5,1.4,2.8,2.3,3.3,2.6s0.6-2.6,0.2-3.4s0.6-1.1,0.6-0.7s2.3,3.1,3,4.1s1.5,6.9,2.3,8.2s7.6,4,9.9,4.4
		c2.1,0.7,4,1.9,5.5,3.6c0.5,0.7,3.4,1,4,1.4c1,0.8,1.9,1.7,2.7,2.7c0.5,0.5,0.9,1.2,1.1,1.9c0,0.3,3.9,1.8,4.9,2.8
		c0.8,0.7,1.9,0.8,2.8,0.3c0.2-0.5,1,2,1.5,3s0.5,3,0.1,3.3s-0.8,4.2-1.5,5s-2,6.5-1.7,7.6c0.6,1.5,1.7,2.8,3,3.7
		c0.4,0.2,0.6,0.8,0.3,1.2v0.1l-0.4,0.3c-0.6,0-0.3,5.6,1.1,6.4S77.5,204.7,77.2,205.1z"/>
	<path class="st2" d="M95.8,108.9"/>
	<path class="st2" d="M291.6,175"/>
	<path class="st1" d="M106.2,268.8h2.2C108.6,266.4,106.1,266.8,106.2,268.8z"/>
	<path class="st1" d="M154.9,89c-0.6-0.2-0.9,1.9-0.8,2.7s2.2,0.8,3.1,0.6c0.8-0.1,1.4-0.8,1.5-1.6c0-0.7-1.2-4-1.7-4
		S155.5,89.2,154.9,89z"/>
	<path class="st1" d="M76.2,68c-0.6,0.5,0,3.1,0.9,3.1s2.7-3.9,4-3.1s2.2,1,1.9,0.7s-3.9-1.9-4.3-2.3S76.8,67.5,76.2,68z"/>
	<path class="st1" d="M89.5,154.8c0,0.5,2.3,0.3,2.6-0.3s0.1-1.2-0.5-1.2C90.7,153.5,90,154.1,89.5,154.8z"/>
	<path class="st1" d="M79.4,151c1-0.2,0.6,1.5,0.8,2.2s2.8,1.1,3.4,1.6s1.8-0.8,2.8-0.7s-0.3-3.6-2-3.5s-3.1-1.6-3.5-1.8
		c-1.1-0.5-2.1-1.1-3-1.8c-0.6-0.5-5-0.8-6.5-0.8c-1.4,0.1-2.6,0.9-3.4,2c-0.2,0.5,2.4,0.9,3.1,0.5s4.2,0.5,5,1.2
		C77,150.7,78.2,151.1,79.4,151z"/>
	<path class="st1" d="M74.6,154.8c0,0.5,2.3,0.1,2.8,0.1s0.6-0.5,0-0.8S74.6,154.3,74.6,154.8z"/>
	<path class="st1" d="M76.2,143c-0.6-0.2-1,0.7-1,1.1c0,0.4,0.3,0.7,0.7,0.8C76.3,144.9,76.9,143.2,76.2,143z"/>
	<path class="st1" d="M81.1,143.3c-0.3-0.5-0.9-0.8-1.5-0.8c-0.3,0-0.5,0.7-0.5,1.7S81.2,143.7,81.1,143.3z"/>
	<path class="st1" d="M84.5,148.6c0.9-0.5,1-1.5,0.5-1.5s-1.6-1.6-2.2-1.8s-1,1-1,1.5c-0.1,0.4,0.2,0.7,0.6,0.8l0,0h0.1
		C82.9,147.5,83.6,149.1,84.5,148.6z"/>
	<line class="st3" x1="95.8" y1="108.8" x2="95.8" y2="108.8"/>
	<path class="st1" d="M106.2,268.8h2.2C108.6,266.4,106.1,266.8,106.2,268.8z"/>
	<path class="st4" d="M157.3,92.3c0.8-0.1,1.4-0.8,1.5-1.6c0-0.7-1.2-4-1.7-4s-1.4,2.4-2,2.2s-0.9,1.9-0.8,2.7
		S156.3,92.5,157.3,92.3z"/>
	<g>
		<path class="st4" d="M341.1,199.3c-2,0-4.8,1-4.8,1.7s-2.8,1.9-3.9,2.4s-2.7,3.3-3.2,4.2s-2.7,0.7-3.5,1s-2.6,1.8-2.6,2.6
			s-0.5,0.7-1-0.2l-1.1,1.1l-1.4,1.5c-0.8,2.4-3.3,5.5-4.2,5.7s-1,4.4-1,6.1c0,1.7,0.5,3.3,1.5,4.7v1.4l0.2,2.7
			c-0.2,1.6,0.4,3.2,1.6,4.3c0.5,0.3,4.3-0.7,5.8-1l2-0.8c7-11.8,12.4-24.5,16.2-37.7L341.1,199.3z"/>
		<path class="st4" d="M202.3,237.1c1.9-1.1,5.5-6.2,6.6-7.3s1.9-4.9,2.2-5.7c0.6-1,1.5-1.8,2.5-2.4c0.6-0.2,2.6-8.6,4.4-10.6
			s3.9-10.8,3.6-14.1s1.1-9.3,1.6-10.8c0.8-1.7,1.9-3.3,3.3-4.7c2.3-2.9,4.4-6,6.4-9.2c1.4-2.3,2.7-7.3,2.4-8.5
			c-0.3-1.2-3.3-2-3.9-1.4c-0.6,0.6-3.4,1-4.3,1c-0.9,0-3-4.9-4.2-5.8c-1.2-0.9-2.4-6.6-3.2-7.6c-1.1-1.5-2.2-2.9-3.4-4.3
			c-0.7-0.6-0.8-3.5-0.9-4.3c-0.1-0.8,1.2,0.5,1.5,1.7c0.3,1.2,3.5,5.9,4.5,7.5s3.7,6.7,4.4,8.3c0.7,1.6,6.7,0.8,8.7-0.1
			s4.4-2.5,4.5-3.1s3.2-1.9,4.1-2.6c0.9-0.7,1.6-4.3,2.2-4.9c0.6-0.6-0.5-4.1-1.1-5.1s-3.7-1.8-4.4-1.5c-0.7,0.3-1.9-2.3-2.5-3.3
			s-2.8-2.3-3.1-3c0-0.8,0.4-1.5,1-2c0.3-0.2,4.8,2.8,6,4.4c1.2,1.5,2.2,3.2,3,4.9c0.2,0.6,3.7,0.7,4.5,0.1c0.5-0.5,1.2-0.5,1.7,0
			l0.1,0.1l0.2,0.2h1l3.9-0.6c1.2,1.1,2,2.5,2.3,4.1c0.3,0.9,1,1.7,1.8,2.2c0.7,0.1,1.2,2.6,1.5,3.3c1,1.9,2,3.9,2.8,5.9
			c0.7,1.9,1.6,3.8,2.7,5.5c0.5,1.2,0.7,2.6,0.8,3.9c0.3,1,1.2,1.7,2.3,1.8c0.8-0.1,2.6-5.6,3.1-7.6s1.8-3.7,2.2-3.7
			s0.7-1.1,0.7-1.6s2.2-0.3,2.4-0.9s0.8-4.2,1.6-4.8c1.4-1,2.9-1.9,4.5-2.7c0.9-0.3,3.5,1.8,4.1,2.8c0.6,1.2,0.9,2.6,0.8,4
			c-0.2,0.3,1.2,2.6,2.6,2.6s1.7,1.7,1.8,2.3s1.8,2.4,2.2,3.2c0.3,1.2,0.3,2.3,0,3.5c-0.1,1.4-0.1,2.8,0.1,4.2
			c0.2,0.8,4.3,5,5.9,6.2s2.3-2.6,1.5-3.7s-3.5-4-4.1-4.8s-0.7-4.2-0.5-5.1s2.4,0.5,3.2,1.1c0.9,0.7,1.6,1.6,2,2.6
			c0,0.5,5.6-2.6,5.8-5.9s2-7.2,2.2-8.1c0.1-0.9-0.3-1.7-1-2.2c-0.5-0.1,0.8-2.5,2.4-2.5s5.2-4.1,6.1-5.8c0.8-1.2,1.7-2.3,2.8-3.2
			c0.8-1.8,1.3-3.7,1.6-5.7c0.2-1.6-0.9-4.1-1-5c-0.4-1.2-1-2.3-1.8-3.3c-0.4-1-0.6-2.2-0.5-3.3c0.1-0.3,1.6-0.8,1.7-1.2
			s1.7-2,1.6-2.8s0.9,1,1.7,1.6s1.5,4.7,2.4,5s4.5-4.2,4.1-7.3s1-6.9,1.9-7.3s2.4-2.7,3.5-4.4c-8.1-23.2-21.4-44.2-39-61.3h-0.6
			l-1.4-0.2c-2.3-0.5-3.5-2.8-3.2-3.4c0.1-0.3,0.1-0.7,0-1c-1.2-1.1-2.5-2.3-3.9-3.3h-2.8c-1.7-0.2-3.3-0.7-4.8-1.5
			c-0.5-0.5-2.3,0.5-2.4,1.5s-3.2,1.4-3.4,2.2c-0.5,0.7-1.4,0.9-2.2,0.5c-0.2-0.5-3.2,1-4.5,1.1c-1.6,0.3-3.2,0.9-4.7,1.6
			c-1,0.6-1.8,1.4-2.4,2.4c-0.7,0.8-1.6,1.4-2.6,1.8c-0.6,0.2-0.5,2.8,0.2,3.3s-1.4-0.3-2.4-0.8s-1.9,1.1-2.3,1.7
			c-0.4,0.6-1.1-0.3-1.1-1.1s-2.4-1.4-2.6-0.8s-1.9-0.2-2.6-0.6s-3.6,2.7-4.8,3.9c-1.2,1.2-6.4,1.9-7.3,1.6
			c-0.9-0.3-1.9,2.3-1.1,2.5h-3.2c-2.6,0.6-5.1,1.5-7.5,2.8c-0.5,0.4-1.3,0.4-1.7-0.1c-0.2-0.2-0.3-0.4-0.3-0.7
			c0-0.7-1.8-1.2-2.3-1.4s-1.6,3.5-2.5,4.2s-2-2.8-4.3-3.5c-2.3-0.7-5.7-2.7-6.7-3s-3-2.3-3.5-3s-3.4-1-4.3-1
			c-0.9,0-3.9,1.7-4.7,2.3c-0.8,0.6-1.9,0.5-2.4,0.8l-5,4.4c-1.2,1-3.5,5.3-4.2,6.5c-0.5,0.7-1.3,1.2-2.2,1.2
			c-0.5,0.4-0.8,1-0.8,1.6c0,0.5-3.7,2.4-4.2,4.1s0.5,5.7,0.5,7s1.4,4.2,2.4,4.2s0.6,2.4,0.2,3.1c-0.4,0.7,0.7,1.4,0.6,1.9
			c-0.1,0.5-2.6,1.4-3.4,1.6c-1.1,0.7-1.9,1.6-2.3,2.8c-0.1,0.6-2.6,1-3.5,1.8c0.2-0.6,0.4-1.2,0.7-1.8c0.3-1,0-2-0.6-2.8
			c-0.3-0.3-0.6-4.9-1.2-5.9c-0.8-1.1-1.7-2.1-2.6-3c-0.3-0.3,0.2-1.5,0.6-2s-2.2-0.8-2.7-0.5s-1,4.9-1.2,6.1c0,1.3,0.6,2.5,1.6,3.2
			c0.5,0.1,0.2,2.3-0.6,2.4s-1.6,3.3-1.1,4.1s-0.6,2.2-1,2.5s3.2,0.1,4.9,0.1c1-0.1,2,0.2,2.8,0.8c-0.1,0.1-3.2,0.6-3.7,1.2
			s-2.6,2-3,2.6s0.7,1.7,1.5,1.7s1.8,3,2.5,3.5c0.5,0.8,0.6,1.8,0.1,2.6c-0.2,0.5-4.4-0.2-5.9,0.1s-3.5,3.6-3.6,4.9
			c0,1.9,0.2,3.9,0.5,5.8c0.1,1,3.4,1.6,4.1,2s3.7,0,4.4,0.3s2.7-3.2,3.2-4.8s3.7-4.5,4.4-5.7c0.7-1.2,4.2-0.9,5.1-1.5
			c0.9-0.6,0.5,2.7,0.8,4.5c0.3,1.8,3.9,1.6,3.3-0.1c-0.6-1.7,0.3-2.4,0.5-1.8c0.2,0.6,3.4,1.9,4.1,2.8s0.5,3-0.2,3
			c-0.7,0-0.8,2.2,0,2.5c0.8,0.3,1.8-2.5,2.6-3c0.8-0.5,1.5-2.2,1.1-2.3s0.7-1.7,1.1-1.1c-0.8-1.7-1.9-3.4-3.2-4.8
			c-1.5-1.5-0.3-0.8,2.2,1.4l1.8,2.5c0.3,0.5,0.8,1.8,1.1,2.3l0.5,0.7c0.4,1.3,0.6,2.6,0.7,4c0.3,1,1.2,1.7,2.3,1.8
			c0.5-0.1,1.1,0.1,1.4,0.5c-0.1,0.1,0.6,1.7,1.4,1.7s1.2-2.2,0.3-2.2s-0.7-3.2-0.8-4.7s0.6-2.5,0.9-2.5s0,2.8,0,3.5
			c0.1,1,0.4,1.9,0.8,2.8l0.9,0.7l1.9,1.5c2.8-0.8,6.7-0.1,6.5,0.5c-0.2,0.6,2,0.7,2.2-0.2c0.2-0.9,0.2,0.1,0.2,0.7
			s-1.8,3.2-2.2,4.3s-6.9,0.3-9.8,0.1c-2.9-0.2-7,0.7-7.3,1.6c-0.3,0.9-4.7-1.9-6.7-2.7s-3.6-3.9-4-4.3s0.3-1.4,0.1-2
			c-0.2-0.6-4.8-0.7-6.1-0.2c-1.3,0.5-8.3,1.2-9.9,1.9s-4.1,0-4.9-0.1s-2.6,2.2-3.5,2.5s-2,3.6-2.6,7.2l-1.2,2.4l-0.8,1.6
			c-2.3,1.7-4.8,7.5-5.6,8.7s-1.4,9.5-1.4,12.4s2.4,8.7,3.2,10.5s4.9,5.2,6.4,6.1s6,1,7.5,1c1.8-0.2,3.2-1.5,3.7-3.2l2.2,0.2h1
			c0,1.2,3.3,2.2,4.1,2.6c1.2,0.3,2.4,0.3,3.5-0.1c0.6-0.1,1.4,5.6,0.9,7.3s1.1,7.5,1.6,9.3s2.5,6.6,2.6,8.3s-1.1,7.5-1.4,9.5
			s2.5,7.6,3.2,9.5c0.6,2.3,1,4.6,1.2,7c0,0.9,3,6.8,3.6,9.2S200.2,238.3,202.3,237.1z"/>
		<path class="st4" d="M332.4,165.3c0.1,0.5,2-1,3.2-1.2s1.8-3.2,0.9-3.4s-1.9-2.6-2.6-2.8s-1.8,1-1.8,1.9s-2,1.2-2.5,2
			s-0.3,1.2,0,1.2C330.7,163.6,331.6,164.4,332.4,165.3z"/>
		<path class="st4" d="M330.2,182c0.6-0.2,0-3.2-1.2-3.4s-4.4,4-3.9,6.4s1.2,2.3,1.6,1.7s2.3,0.3,2.8,0.5s0.6-0.3,0-1.2
			S329.6,182.3,330.2,182z"/>
		<path class="st4" d="M323.7,179.1c0.1-1,0.3-4.4,0.5-5.1s-1.8-2.6-2.8-3s-4.1,6.5-6.4,7.7s-3.1,5.5-2.5,6.4s5.3,1.5,6.1,2.2
			s1.7-0.1,2.3-0.2s0.3-0.5,0.1-0.6s1.6-2,1.9-3.3C323.3,181.9,323.5,180.5,323.7,179.1z"/>
		<path class="st4" d="M310.7,190.6c-1.7-0.7-3.9,0.3-4,1s6.8,1.8,9.2,2.4s3.7,0.8,3.3,0.5L310.7,190.6z"/>
		<path class="st4" d="M325.2,144.6c0.6-0.8-0.8-4.4-1.5-3.6s-0.1,3,0,3.7S324.6,145.4,325.2,144.6z"/>
		<path class="st4" d="M329.3,152.5c0.5-0.9-0.5-1.9-2-2.3s-1.2,4.2-0.6,4.8S328.9,153.4,329.3,152.5z"/>
		<path class="st4" d="M337.3,180.9c1.8,1.2,5.9,0.7,6-1.7C341.5,178,337.2,178.2,337.3,180.9z"/>
		<path class="st4" d="M334.8,124.6c-0.7,0.6-1,1.5-0.9,2.4h-0.3c-0.6,0-0.7,2.4,0,2.8s2.2-1.8,3-2.4c0.8-0.5,1.7-0.8,2.6-0.7
			c1.1-0.1,2.1-0.4,3.1-0.9c0.4-0.3,0.7-0.6,0.9-1c-0.3-1.7-0.8-3.4-1.1-5.2l-2,1.5L334.8,124.6z"/>
		<path class="st4" d="M305.9,183.8c-1.3-2.1-2.9-4-4.8-5.6l-0.7-1.2l-0.8-1.4c-0.7-1.5-3-2.6-3.2-3.1s-0.9,1.2-1.7,0.8l2.4,1.7
			c2,1.5,6.1,11.8,7.2,12.5S306.5,185.2,305.9,183.8z"/>
		<path class="st4" d="M273.3,167.1c-0.6,1.1,3,3.6,3.3,3.1c0-1.4-0.3-2.8-1-4C274.8,165.5,273.9,165.9,273.3,167.1z"/>
		<path class="st4" d="M225.5,222c0.1,1.2,2.6,2.2,3.3,1.9c0.7-0.3,2.7-3.9,3-4.9c0.3-1.3,0.5-2.6,0.6-3.9c0.1-0.7,0.3-1.3,0.6-1.9
			c0.5-0.8,0.8-1.7,1-2.7c0.2-1.4-1.5-7.8-1.5-9s-1.2,0.6-1.6,1.7c-0.4,1.1-3.5,3.5-4.3,4.4c-0.8,0.9-1.5,4.2-1.1,4.8
			c0.1,1.2-0.1,2.3-0.6,3.4C224.4,216.6,225.3,220.9,225.5,222z"/>
		<path class="st4" d="M187.5,24.6c-1.1-0.3-3.4,0.9-3.1,1.6s-1.8-0.9-3.3-0.1s-1.9,3.4-1.2,3.7c0.7,0.3,1.1,2.4,1.1,2.8
			s2.8,0.1,3.6-0.5c0.8-0.6,0.6,2-0.1,2.8s0.2,2.2,1,2.3c0.8,0.1,1.8,1.9,2.7,1.9s2.3-3.2,2.5-4.3c0.2-1.1,3.1-0.2,4.3,0.1
			c1.2,0.3,1.7-4.3,0.3-5.1s-3.1-0.3-3.6-0.9c-0.6-0.6-1.4-1-2.2-1.1C189.2,27.8,188.6,24.9,187.5,24.6z"/>
		<path class="st4" d="M198.5,26.9c1.9,0,3.8-0.7,5.2-2c0.6-0.5-6.1-1.8-8.7-1.9c-2.6-0.1-4.5,0.2-4.5,0.8S196.4,26.5,198.5,26.9z"
			/>
		<path class="st4" d="M237.9,41.4c1.1-1.1,6.1-2.8,6.7-4.1c0.4-0.8,0.2-1.7-0.6-2.2l0,0h-0.2c-0.5,0.1-0.9,0.4-1.2,0.8
			c-0.1,0.2-5.8,1.5-7.5,2.4c-1.6,0.7-3.1,1.7-4.4,2.8c-0.7,0.7-1.9,6.4-2.3,6.9c-0.4,0.5,1.8,2.8,2.8,3.5c0.9,0.3,1.9,0.4,2.8,0.2
			c0.5-0.1-0.5-4-1-5.3S236.8,42.7,237.9,41.4z"/>
		<path class="st4" d="M231.9,26.8c1.8,1.8,2.8-0.8,4.9-0.6C236.8,22.3,231.7,23.8,231.9,26.8z"/>
		<path class="st4" d="M268.1,27.6c0,0.7,5.1,1.2,6.7,0.9s-0.3-2.6-2.5-2.5S268.1,26.9,268.1,27.6z"/>
		<path class="st4" d="M342.1,185.7c-0.5,0.2-2.7,0.5-3.1,0.1c-0.4-0.4-0.7,0.9-1.2,1.1c-0.2,0.2-0.2,0.6,0,0.8s0.4,0.2,0.6,0.2
			c0.8-0.3,2.7,0.9,4.4,2c0.3-1.7,0.7-3.5,0.9-5.3L342.1,185.7z"/>
		<path class="st4" d="M80.1,203.3c-0.2,0.5,2.6,3.3,3.6,4.3c1.6,2.2,2.9,4.7,3.9,7.3c0.3,1.6,0.3,3.1,0,4.7
			c0.1,0.8,0.3,1.6,0.6,2.4c0.1,0.6-0.9,5.1-0.6,7s-2.2,7.6-2,10.6s1.4,6.6,1.8,6.4s0.7,2.6-0.1,3s-1.9,2.6-1.4,2.7s0,2.4,0.1,3.3
			s0.9,6.9,1,8.4s2.3,5.1,2.7,6.4s0.9,3.5,1,3.9l0.3,0.8c0.8,0.2,1.6,0.6,2.3,1c0.5,0.3,3.9,0.1,5-0.1s0.1-1.2-0.3-1.7
			s-0.9-3.2-1.5-3.4s-0.8-3.6-0.3-4.4s2.5-1.9,2.7-2.6s0.2-3.5-0.2-4s0.1-4-0.2-5.8s3.1-3.4,3.3-4.8s4-3,4.8-3.6s1.6-4.8,1.1-5.6
			s1.4-1.6,2.2-1.6l2-0.6c0.2,0,1.2-1.8,1.7-2.2s1.6-4.7,2.5-5.3c0.9-1.1,1.5-2.5,1.7-4c0.4-1.3,1-2.5,1.9-3.6
			c0.5-0.7,4-2.3,4.7-2.5s1.6-5.9,1.8-8c0.4-1.9,0.8-3.7,1.4-5.5c0-0.7,1.1-1.2,1.4-1.5s1-2.8,1.6-3.4c0.6-0.6,2.5-3.1,2.5-3.6
			c0.1-1.1,0.4-2.2,0.7-3.2V191c-0.6-1.7-2.5-3.9-3-3.3s-2.6-1.5-3.7-1.9c-1.5-0.4-3-0.7-4.5-0.7c-0.7,0-3.1-1.9-4.2-2.3
			c-1.5-0.3-2.9-0.6-4.3-1.1c-0.5-0.3-1.1-4.4-3.4-5.8s-6.1-4.5-6.6-5.7s-4.7-3.5-6-4.3s-3.3-0.9-3.5-0.6s-1.9-2.3-2.7-3
			s-3.4-1.2-3.5-0.7s-1.8,0.2-2.2-0.2s-1.7,0.2-2.4,0.5s-2.7,3.4-3.7,4.2s-2.2-0.7-2.8-1c-1.3,0-2.6,0.3-3.7,1
			c-0.7,0.5-2.2-3.4-1.8-5.2s-1.6-5.3-3.2-5.5s-1.9-3.9-1.7-5.2s-2.7-2.3-3.5-2.4c-0.8-0.1-2.6,1.8-3,2.8s-7.3-1.2-6.5-5.5
			s4.1-8.5,4.9-9s5.2-0.7,6.2-0.1c0.6,0.3,1.4,0.3,2-0.2c1.7-0.1,3.3,0,4.9,0.5c1,0.5,2.6,4.7,3.7,5.1s1.5-2.7,1.7-3.5
			c-0.1-1.1-0.4-2.3-0.8-3.3c-0.2-0.6,1.8-5.7,3.5-6.5s3.5-3.7,3.3-4.2s1.4-0.9,1.7-1.1s0-4.3,0.6-5.2c1.5-1.3,3.1-2.4,4.9-3.2
			c1-0.5,1.7-3,1.4-3.5s2.6-3,4.2-3.5s2.8,0.9,2.5,1l3.3-1.8c0.9-0.6,0-2.6-0.7-3.2s-0.2-2.7,0.6-3c0.8-0.6,1.3-1.5,1.2-2.5
			c-0.2-0.3,3.4,0.3,4.8-0.7s0.3,2.4-0.6,3.9c-0.5,0.7-0.3,1.7,0.4,2.2c0.3,0.2,0.6,0.3,1,0.3c0.7,0,1.3,0.4,1.5,1.1
			c0.1,0.3,1.5-0.5,2.4,0s1.5-1.2,1.5-2s-2.2-2.3-2.5-3.3c-0.3-2.5-0.5-4.9-0.5-7.4c0-1-1.5-2.8-1.9-2.5s-1.4-2.8-2.2-3.5
			c-0.6-0.8-0.9-1.7-0.9-2.7c0-0.5-2.5-3.2-3.2-4.4s-1.5-1-1.6-0.5s-1.8,0.7-2.6,0.6s-1.4-3-1.4-4s-3.3-1.2-3.9-2.2s-2.7-0.5-3.1-1
			c-0.7-0.6-1.6-1-2.6-0.9C87.3,71.1,87.4,79,87,81s-2.2,4-2.8,3.9s-0.2,1.5,0.1,1.4s-1.2,2.3-1.5,3.9s-1.8,0-2-1.5s-1.8-3.4-2.2-3
			s-1.4-0.6-1.8-0.2s-3.4-1.7-4.7-2.4s-1.8-4.3-2.6-4.7s-0.1-0.8-0.1-1.4s2.4-2.7,3.1-3.5c1.3-1.7,2.8-3.4,4.3-5
			c1-0.8,1.8-2.6,1.6-3s4.4-1.8,5.7-2.2s2.3-3.9,2.5-4.9c0-1.2-0.5-2.3-1.4-3.1c-0.6-0.2,1.7-0.3,2.5,0.1s3.1-0.7,4.1-0.2l4.2,2.5
			l-0.2,2.5l-0.6,4.3c-3.6,1.5-4.7,4.1-3.4,4s7,2.5,8.6,3.6s2.2-1.7,2.6-2.6c0.4-1.4,0.4-2.8,0-4.2c-0.5-0.6,1.8-0.3,2.5,0.2
			s1.4-0.6,1.8-0.9s0.7-2.6,1-3.1s-1-0.9-1.1-1.6s-2.6-1.7-3.4-2.2c-0.8-0.6-1-1.6-0.6-2.5c0.3-0.3-0.2-2.6-0.7-3.3s-3.1-1.4-4-1.4
			s-1.8-2-2.4-2.4c-1.6-0.4-3.3-0.6-4.9-0.5c-0.8,0.2-2.4-2.5-3.9-1.6s-3-0.9-3.6-1.4s-4.1,3.3-4,5.8s1.2,5,1.8,5.1
			s-0.1,2.4-0.7,3.1s-2-0.7-1.5-1.2s-1.5-3.3-2.2-4.3s-2.3-1.5-3.4-1.9l-2,2.3c0.3,1,0.4,2.1,0.2,3.1c-0.5,1.6-1.8,1.8-1.8,1.1
			c-0.4-0.4-0.9-0.6-1.5-0.6l-2,2.6l-2,2.6l-2,2.8l-1.8,2.5l-2.6,3.9l-2.4,3.7c-0.7,1-1.2,2.2-1.9,3.3c-0.5,0.7-0.9,1.5-1.2,2.3
			l-1.9,3.5l-1,2c-1.4,2.7-2.7,5.6-4,8.5V95l-1.7,4.3l-0.7,1.6l-1.6,4.4l-0.2,0.7c-1.7,5-3.2,10.1-4.4,15.3c-0.1,0.3-0.1,0.7-0.2,1
			c-1.2,5.5-2.2,11.1-2.8,16.7l0,0c0.8,0.7,1.4,1.6,1.8,2.6c0.5,1.4,2.8,2.3,3.3,2.6s0.6-2.6,0.2-3.4s0.6-1.1,0.6-0.7s2.3,3.1,3,4.1
			s1.5,6.9,2.3,8.2s7.6,4,9.9,4.4c2.1,0.7,4,1.9,5.5,3.6c0.5,0.7,3.4,1,4,1.4c1,0.8,1.9,1.7,2.7,2.7c0.5,0.5,0.9,1.2,1.1,1.9
			c0,0.3,3.9,1.8,4.9,2.8c0.8,0.7,1.9,0.8,2.8,0.3c0.2-0.5,1,2,1.5,3s0.5,3,0.1,3.3s-0.8,4.2-1.5,5s-2,6.5-1.7,7.6
			c0.6,1.5,1.7,2.8,3,3.7c0.4,0.2,0.6,0.8,0.3,1.2v0.1l-0.4,0.3c-0.6,0-0.3,5.6,1.1,6.4S80.4,202.9,80.1,203.3z"/>
		<path class="st4" d="M87.9,40.4c1.8-0.3,5-0.9,5.2-1.4c0.1-0.7,0.1-1.5-0.1-2.2h0.9c0.7,0,1.9-3.9,2.6-4.8s5-2.3,6-2.8
			s3.3-2.7,4.1-3.1s2.2-2.3,1.9-2.6s3-2.3,4.1-2.7s1.8-1.8,1.4-1.9s-6.8,3.4-12.8,6.8h-0.1L96,29.3l-3.3,2.6L91,33.3l-3.9,3.3
			l-0.8,0.7L82.1,41L87.9,40.4z"/>
		<path class="st4" d="M152.7,50.8c1.1,0.5,3.2-1,2.4-1.6s-0.3-0.6,0-0.3s0.8-1.9,0.5-2.4s3.2-3.1,2.6-5.6s1-5.1,1.9-5.1
			s0.7-2.8-0.6-3.1s0-0.5,0.5-0.9c0.5-1.1,0.7-2.2,0.7-3.4c-0.2-0.5,1.8-1,2.2-1.6c1-0.9,2.2-1.5,3.5-1.8c0.9-0.1,1.2-2.4,0.5-2.3
			c-1.2,0-2.5-0.2-3.6-0.8c-0.5-0.5-3.9-0.8-4.9-0.5s-0.3-2.5,1-2.7s0.2-2.3-1.2-2.3s-5.2-0.6-6-0.3c-1.1-0.1-2.2-0.3-3.2-0.7
			c-0.6-0.1-5.1,1.4-7.2,1.2c-2.8-0.1-5.6,0.1-8.4,0.5c-1.1,0.2-1.9,2.5-1.7,3.3s-5,0.8-6.6,0.8s-10.3,1.8-12.6,3.1s-4,4.4-3.3,4.4
			s-1.2,1.8-2.5,2.3s-4.1,0.6-4.8,1.2s0.7,1.1,0.9,1.6s1-0.5,1.8,0s3.3,0.6,4,0.9s-2.2,0.8-3.4,0.9s-1,2.6,0,3.1s3.9,0.7,4.1,0.2
			s3.3,0.5,4.7,0.7s2.4,3.5,2.8,4.3s0.5,3.3,0.5,4.1s2.4,2,2.8,1.6s0.3,1.1-0.7,1s-0.3,2.7,0.9,3.2s0.3,2.2-0.3,2.7s-0.3,2.2-1,2.8
			s2.6,6.4,2.5,9.3s1.8,5.3,2.5,5.3s3.1,0.6,3.4,1.2s1.5-0.5,1.9-0.9c0.8-1,1.5-2.1,2.2-3.2c0.8-1.2,2.4-7.2,2.6-7.8s3-0.2,3.6-0.6
			l3-2.2c0.5-0.5,4.4-2,5.6-2.8s2.8-4.1,3.7-4.9s-0.5-0.5-1.5-1.1c-0.5-0.3-0.7-1-0.4-1.5l0.2-0.3C148.4,49.6,151.7,50.4,152.7,50.8
			z"/>
		<path class="st4" d="M187.5,24.6c-1.1-0.3-3.4,0.9-3.1,1.6s-1.8-0.9-3.3-0.1s-1.9,3.4-1.2,3.7c0.7,0.3,1.1,2.4,1.1,2.8
			s2.8,0.1,3.6-0.5c0.8-0.6,0.6,2-0.1,2.8s0.2,2.2,1,2.3c0.8,0.1,1.8,1.9,2.7,1.9c0.7-0.3,1.3-0.9,1.5-1.7v-9.8l0,0
			C189.2,27.8,188.6,24.9,187.5,24.6z"/>
		<path class="st4" d="M157,66.1c0.5,0.9,1.4,1.4,2.4,1.2c1-0.1,3.1-1.2,3.9-1.4s1.5-3.7,1-4.5s-3.9-0.7-4.8-0.7
			c-1.4-0.3-2.8-0.8-4-1.5c-0.6-0.6-0.8,2.2-1.6,2.5s0.3,0.8,0.7,0.6s0,1.4-0.5,1.9S156.8,65.4,157,66.1z"/>
	</g>
	<path class="st1" d="M76.2,68c-0.6,0.5,0,3.1,0.9,3.1s2.7-3.9,4-3.1s2.2,1,1.9,0.7s-3.9-1.9-4.3-2.3S76.8,67.5,76.2,68z"/>
	<path class="st1" d="M89.5,154.8c0,0.5,2.3,0.3,2.6-0.3s0.1-1.2-0.5-1.2C90.7,153.5,90,154.1,89.5,154.8z"/>
	<path class="st1" d="M79.4,151c1-0.2,0.6,1.5,0.8,2.2s2.8,1.1,3.4,1.6s1.8-0.8,2.8-0.7s-0.3-3.6-2-3.5s-3.1-1.6-3.5-1.8
		c-1.1-0.5-2.1-1.1-3-1.8c-0.6-0.5-5-0.8-6.5-0.8c-1.4,0.1-2.6,0.9-3.4,2c-0.2,0.5,2.4,0.9,3.1,0.5s4.2,0.5,5,1.2
		C77,150.7,78.2,151.1,79.4,151z"/>
	<path class="st1" d="M74.6,154.8c0,0.5,2.3,0.1,2.8,0.1s0.6-0.5,0-0.8S74.6,154.3,74.6,154.8z"/>
	<path class="st1" d="M76.2,143c-0.6-0.2-1,0.7-1,1.1c0,0.4,0.3,0.7,0.7,0.8C76.3,144.9,76.9,143.2,76.2,143z"/>
	<path class="st1" d="M81.1,143.3c-0.3-0.5-0.9-0.8-1.5-0.8c-0.3,0-0.5,0.7-0.5,1.7S81.2,143.7,81.1,143.3z"/>
	<path class="st1" d="M84.5,148.6c0.9-0.5,1-1.5,0.5-1.5s-1.6-1.6-2.2-1.8s-1,1-1,1.5c-0.1,0.4,0.2,0.7,0.6,0.8l0,0h0.1
		C82.9,147.5,83.6,149.1,84.5,148.6z"/>
	<path class="st5" d="M90.2,39c-0.1-0.1-0.8,0.3-0.5,0.6c0.2,0.1,0.4,0,0.5-0.2C90.3,39.3,90.3,39.1,90.2,39z"/>
	<path class="st5" d="M107.7,91.2c-0.1-0.1-0.8,0.3-0.6,0.6S108,91.5,107.7,91.2z"/>
	<path class="st6" d="M107,45.9H19.2C8.6,45.9,0,54.5,0,65.1v210.5c0,10.6,8.6,19.2,19.2,19.2H107c10.6,0,19.2-8.6,19.2-19.2V65.3
		c0.1-10.5-8.3-19.2-18.9-19.3l0,0L107,45.9L107,45.9z"/>
	<path class="st7" d="M46.5,60.9h33.2c0.9,0,1.7,0.8,1.7,1.7c0.1,0.9-0.6,1.6-1.5,1.7l0,0H46.5c-0.9,0-1.7-0.7-1.7-1.7
		C44.8,61.7,45.5,60.9,46.5,60.9L46.5,60.9z"/>
	<path class="st7" d="M63,280.7c-6.1,0-11.1-5-11.1-11.1s5-11.1,11.1-11.1s11.1,5,11.1,11.1C74,275.7,69.1,280.6,63,280.7z"/>
	<rect x="8.2" y="83.8" class="st7" width="109.6" height="162.3"/>
	<path class="st8" d="M63,261.9c-4.2,0.1-7.6,3.5-7.7,7.7c0,4.3,3.4,7.7,7.7,7.7s7.7-3.4,7.7-7.7S67.3,261.9,63,261.9L63,261.9z"/>
	<rect x="14.5" y="121.3" class="st4" width="97" height="49.9"/>
	<rect x="41.1" y="99.9" class="st9" width="70.1" height="6.9"/>
	<path class="st9" d="M32.7,103.4c0,5-4.1,9.1-9.1,9.1s-9.1-4.1-9.1-9.1s4.1-9.1,9.1-9.1S32.7,98.4,32.7,103.4L32.7,103.4z"/>
	<rect x="14.5" y="203.2" class="st9" width="97" height="2.9"/>
	<rect x="14.5" y="213.1" class="st9" width="97" height="2.9"/>
	<rect x="14.5" y="222.9" class="st9" width="97" height="2.9"/>
	<rect x="14.5" y="232.6" class="st9" width="70.4" height="2.9"/>
	<rect x="14.5" y="184.3" class="st9" width="64.5" height="6.9"/>
	<g>
		<polygon class="st7" points="67,127.4 82.7,147.3 66.9,165.1 75,147.6 		"/>
		<polygon class="st7" points="59,127.4 43.3,147.3 59.1,165.1 51,147.6 		"/>
		<g>
			<polygon class="st7" points="63.2,139.2 65.6,143.4 68,147.6 63.2,147.6 58.3,147.6 60.7,143.4 			"/>
			<polygon class="st7" points="63.2,156 65.6,151.8 68,147.6 63.2,147.6 58.3,147.6 60.7,151.8 			"/>
		</g>
	</g>
</g>
</svg>
