<svg xmlns="http://www.w3.org/2000/svg" viewBox="0 0 227.83 273.47"><defs><style>.cls-1{fill:#948079;}.cls-2{fill:#c18978;}.cls-3{fill:#624923;}.cls-4{fill:#b2b3b3;}.cls-5{fill:#fcc588;}.cls-6{fill:#7f6e68;}.cls-7{fill:#fdbe17;}.cls-8{fill:#fab77a;}.cls-9{fill:#8f6d3b;}.cls-10{fill:#ffe700;}.cls-11{fill:#f89e20;}.cls-12{fill:#695c56;}.cls-13{fill:#b17f6e;}.cls-14{fill:#9fa1a1;}.cls-15{fill:#75582d;}.cls-16{fill:#563f1b;}.cls-17{fill:#fff;}.cls-18{fill:#211f1f;}.cls-19{fill:none;stroke:#211f1f;stroke-linecap:round;stroke-linejoin:round;}</style></defs><title>Recurso 1</title><g id="Capa_2" data-name="Capa 2"><g id="Object"><path class="cls-1" d="M75.34,20.63A69.9,69.9,0,0,1,62,14a1.09,1.09,0,0,1-.39.34C51.38,19.34,49.18,28,49.16,28.06a1,1,0,0,1-.06.14A36,36,0,0,0,62.42,44.25C63,41,65.82,29.42,75.34,20.63Z"/><path class="cls-2" d="M71.33,200.8c-1.19-1.86-4.43-3-6.87-3-1.28,0-2.05.31-2.26.61-1.28,1.92-6.58,7.16-12.73,13.22-6.65,6.57-16.7,16.49-17.18,18.29,0,1.49,5.08,4.29,7.35,4.29a.82.82,0,0,0,.22,0c1.22-.83,28.76-24.5,31.56-30.56A2.8,2.8,0,0,0,71.33,200.8Z"/><path class="cls-1" d="M105.23,253.86c-4.68,0-12.55-.86-14.18-1-1.65.75-11.19,5.3-13,10.58a4.49,4.49,0,0,0,.26,3.77c4,7.49,23.7,2.73,26.72,1.44,1.48-.63,1.88-8.07,1.36-14.77Z"/><path class="cls-1" d="M84.06,199.75a5,5,0,0,1-1-2.46A87.33,87.33,0,0,1,82.87,186a41.19,41.19,0,0,1-21.56-1.76A11.6,11.6,0,0,0,62.68,187a1.11,1.11,0,0,1-.13,1.42c-.07.07-6.44,6.55-5.75,12.77a40,40,0,0,0,3.56-4c.69-1,2.15-1.6,4.11-1.6,3.07,0,7.06,1.37,8.74,4a5,5,0,0,1,.24,5,30.49,30.49,0,0,1-4.89,6.24,17.48,17.48,0,0,0,14.81-5.92,1.09,1.09,0,0,1,.42-.29c.06-2.49.13-4.12.14-4.43A1.09,1.09,0,0,1,84.06,199.75Z"/><path class="cls-1" d="M169,253c-.69,7.74-.1,15,1.29,15.58,3,1.29,22.76,6,26.72-1.44a4.5,4.5,0,0,0,.26-3.77c-1.81-5.16-10.93-9.61-12.91-10.52C181.61,253.56,173.9,254.34,169,253Z"/><path class="cls-3" d="M183.88,250.7a1.09,1.09,0,0,1,.29-.1c1.36-1.71.93-18.85.62-31.38-.12-4.65-.23-9.22-.27-13.36-6.11,1.87-24.55,3.32-44,3.32-20.58,0-42.3-1.61-51.81-6a16.11,16.11,0,0,1-2.55-1.46c-.24,7.21-1,40.47,5.35,48.93,2.28.25,12.48,1.33,15.78.92,1.82-.78,4.93-13.34,6.43-19.38,2.18-8.79,2.54-9.83,3.55-10.17.62-.2,2.16-.13,8.53.26,9,.55,24,1.48,30.42.19a1.12,1.12,0,0,1,1.29.79c2.59,9.25,7.56,24.67,9.84,26.63C170.15,252.32,180.7,251.6,183.88,250.7Z"/><path class="cls-1" d="M208.23,195.47c.51-1.3.93-2.6,1.3-3.89a36.38,36.38,0,0,1-9.35,1.14,54.46,54.46,0,0,1-10.28-1c-.1,6-1,11-3.18,13,0,2.66.08,5.54.14,8.51a1.1,1.1,0,0,1,1,.46,11.67,11.67,0,0,0,3.31,3.09c0-2.22.41-10.6,3.86-13.07,1.68-1.19,3.78-1,5.62.49,2.2,1.8,3.78,5.43,2.35,8.63a1.11,1.11,0,1,1-2-.9c.94-2.11-.14-4.71-1.73-6a2.37,2.37,0,0,0-2.92-.4c-2.14,1.53-2.93,8-2.93,11.71a1.09,1.09,0,0,1-.22.63,18.28,18.28,0,0,0,9.49,1.55c2.57-.28,7.14-1.44,9-6,3.58-9-3.13-16.73-3.2-16.8A1.11,1.11,0,0,1,208.23,195.47Z"/><path class="cls-4" d="M46.83,211.14c-1-1.11-16.94-18.22-14.8-32.65-6.87,3.6-28.81,16.84-29.78,39.28,4.73.94,25.43,5.15,30.84,7.44C35.64,222.32,40,217.89,46.83,211.14Z"/><path class="cls-5" d="M77,62.16c-1.71,5-9.1,27-10,39.94,1.07.24,2.35,1.18,4.45,2.8a83.63,83.63,0,0,0,31.38,15.71c1.15-9.47,6.55-28.33,31.39-28.33,27.23,0,31.79,19.47,32.35,29.26,20.63-5.08,29.76-14.82,34.2-19.55a13.46,13.46,0,0,1,3-2.76c-1.88-13.78-8.06-31.34-9.53-35.38-5.68.82-28.22,1-39.27,1-2.11,3.54-11.74,19.32-16.69,20.51a3,3,0,0,1-.71.09,2.41,2.41,0,0,1-1.31-.37c-4.15-2.64-11.58-17.67-12.41-19.37a1.09,1.09,0,0,1,.05-1C104.85,64.43,83,63.76,77,62.16Zm24.66,29c-3.22,0-5.82-4-5.82-9s2.61-9,5.82-9,5.82,4,5.82,9S104.88,91.2,101.67,91.2Zm68.9-18c3.22,0,5.82,4,5.82,9s-2.61,9-5.82,9-5.82-4-5.82-9S167.35,73.25,170.57,73.25Z"/><path class="cls-6" d="M137.44,83.23a.54.54,0,0,0,.3,0c3-.73,10.17-11,14.62-18.35H150c-5.25,0-14.25,0-24.21-.15l0,0C128,69.23,134.38,81.27,137.44,83.23Z"/><path class="cls-5" d="M60.65,181.54a1,1,0,0,1,.14,0,39.35,39.35,0,0,0,22.1,2.14H83c.31-6.05,1-12.17,1.61-17a1.06,1.06,0,0,1-.16.07,18.83,18.83,0,0,1-3.61.29c-5.8,0-14.07-1.58-19.12-2.67C61.13,166.82,59.47,175,60.65,181.54Z"/><path class="cls-7" d="M202.35,103.5c-4.68,5-14.42,15.37-36.63,20.51a1.11,1.11,0,0,1-1.36-1.06c-.26-10.63-4.53-28.46-30.19-28.46-24.2,0-28.56,19.31-29.31,27.62a1.11,1.11,0,0,1-1.39,1A86,86,0,0,1,70,106.65a24.51,24.51,0,0,0-3.38-2.38c-1.14,2.85-2.52,16,5.19,28.47,5.38,8.71,16.28,18.64,38.25,23.31a1.05,1.05,0,0,1,.19-.1,1.11,1.11,0,0,1,1.19.39,139.55,139.55,0,0,0,27.06,2.4c41.84,0,57.77-15.77,63.77-29,5.86-12.91,3.49-26,2.19-28.42C204.07,101.67,203.16,102.63,202.35,103.5Zm-48.59,21.61a1.11,1.11,0,0,1-1,1.07,145.36,145.36,0,0,1-15.68.83,151.69,151.69,0,0,1-18.41-1.08,1.11,1.11,0,0,1-1-1.1c0-.64,0-1.35-.07-2.08-.18-3.52-.41-7.9,2.71-11.19,2.71-2.85,7.39-4.24,14.32-4.24,6.61,0,11.61,1.71,14.87,5.08C153.26,116.25,153.89,121.44,153.76,125.11Z"/><path class="cls-7" d="M149.93,43.51c-28,0-63,.74-73.12,2-.7.09-1.26.66-1.65,1.71a11,11,0,0,0-.53,3.65s0,0,0,0c0,3.41,1,7.42,2.51,9.15,2.37,1.47,33.74,2.64,72.88,2.64h0c26.9,0,43-.57,44.47-1.1.73-.33,1.64-1.85,1.94-5.07.44-4.73-.78-10.35-2.5-11.56C192.64,44.29,180.29,43.51,149.93,43.51Z"/><path class="cls-1" d="M208.72,43.56a48.19,48.19,0,0,0-12-23.07,87.49,87.49,0,0,1-13.27,3.9A52.71,52.71,0,0,1,195.63,42.2a1.1,1.1,0,0,1-.23,1.08c1.43,1.15,2.4,3.61,2.91,6.43a47.92,47.92,0,0,0,10.94-5.41A1.09,1.09,0,0,1,208.72,43.56Z"/><path class="cls-1" d="M213.09,11.63a63.17,63.17,0,0,1-14.1,8A49.77,49.77,0,0,1,210.9,43.13,35.85,35.85,0,0,0,224,24.41C220,12.88,214.76,11.69,213.09,11.63Z"/><path class="cls-5" d="M187.44,166.92a140.17,140.17,0,0,1,2.46,22.5c2.51.52,11.81,2.16,19.6-.13a1.09,1.09,0,0,1,.64,0,57.15,57.15,0,0,0,0-25.18s0,0,0,0c-4.85,1.09-14,2.93-20.28,2.93A22.42,22.42,0,0,1,187.44,166.92Z"/><path class="cls-8" d="M134.66,109.53c-6.2,0-10.48,1.19-12.71,3.55-2.46,2.59-2.27,6.28-2.1,9.54,0,.41,0,.82.06,1.21a151.94,151.94,0,0,0,31.64.24c0-3.14-.74-7.15-3.61-10.13S140.64,109.53,134.66,109.53ZM146.3,119.8a18.36,18.36,0,0,1-9.65,2.31,43.24,43.24,0,0,1-12.8-2.21,1.11,1.11,0,0,1,.74-2.1c.13,0,13.3,4.58,20.54.1a1.11,1.11,0,1,1,1.17,1.89Z"/><path class="cls-9" d="M172.1,156.61a1.08,1.08,0,0,1,0,.52c-.05.3-5.49,29.68-35.66,29.68h-1.12c-30.69-.73-35.11-29.95-35.27-31.12-13.8-4.52-22.26-11.32-27.45-18a1.09,1.09,0,0,1-.23,1c-.11.12-10.77,11.77-13.56,22.68,4.12,1,19.14,4.32,25.14,3.13a1.09,1.09,0,0,1,.86.18c.6-4.38,1.12-7.37,1.18-7.72a1.09,1.09,0,0,1,1.29-.9,1.11,1.11,0,0,1,.9,1.29c0,.25-4.32,25.08-2.9,39.64.14,1.45,1.58,2.82,4.29,4.07,19.78,9.17,90.66,5.44,95.38,2.17,5.94-4.11.68-39.13-2.34-46.43a1.11,1.11,0,1,1,2.05-.85,55.89,55.89,0,0,1,2.3,8.6c6.19,1,20.76-2.21,24.82-3.17-2.38-9.32-10.49-19.16-12.87-21.91C193.51,146.4,185.07,152.66,172.1,156.61Z"/><path class="cls-5" d="M135.34,174.8a25.1,25.1,0,0,0,23.45-15.23,137.22,137.22,0,0,1-20.25,1.4,143.64,143.64,0,0,1-26.1-2.19C114.46,163.54,120.76,174.8,135.34,174.8Z"/><path class="cls-7" d="M135.41,184.58c27.09.73,33.59-23.52,34.43-27.32-2.65.72-5.47,1.36-8.49,1.89-.42,1.16-6.86,17.88-26,17.88-17.26,0-24-14.85-25.47-18.76q-3.92-.82-7.41-1.85C103.42,161.66,109.07,184,135.41,184.58Z"/><path class="cls-7" d="M128.35,9.16c-.1.17-9.34,17-10.41,32.41,10.57-.19,21.75-.29,32-.29l9.5,0s0,0,0-.06c-.35-20.1-16.59-31.6-16.75-31.71a1.08,1.08,0,0,1-.4-.55c-2-.15-4.1-.25-6.28-.25-2.66,0-5.19.13-7.62.35C128.36,9.11,128.36,9.14,128.35,9.16Z"/><path class="cls-1" d="M76.73,43.25a1.08,1.08,0,0,1,0-.68,52.63,52.63,0,0,1,12-18.08A86.12,86.12,0,0,1,77.48,21.4a1.09,1.09,0,0,1-.31.55c-10.67,9.6-12.68,23.36-12.7,23.5s0,.05,0,.08a48.84,48.84,0,0,0,8.06,3.83,11.52,11.52,0,0,1,.59-3c.88-2.35,2.37-3,3.46-3.14Z"/><path class="cls-1" d="M60.05,12.67A41.2,41.2,0,0,1,50,2.8c-.17-.24-.49-.65-.76-.56-1,.3-3,3.9-3.15,10.82a38.34,38.34,0,0,0,1.79,12A26.17,26.17,0,0,1,60.05,12.67Z"/><path class="cls-6" d="M115.71,41.52c.92-13.66,7.78-27.85,10-32.14-35.1,4.45-45.81,31-46.8,33.65,7.25-.64,21.22-1.13,36.8-1.42C115.72,41.58,115.7,41.55,115.71,41.52Z"/><path class="cls-1" d="M224.92,20.65a37.65,37.65,0,0,0,.69-7.61c-.12-6.92-2.14-10.51-3.15-10.81-.27-.09-.59.32-.76.56a38.45,38.45,0,0,1-6.36,7C218,10.65,221.72,13.24,224.92,20.65Z"/><path class="cls-6" d="M161.65,41.21a1,1,0,0,1,0,.12c17,.13,27.66.55,31.78,1.26-1.24-3.16-12.48-29-47.39-33.24C150.65,13.28,161.35,24.19,161.65,41.21Z"/><circle class="cls-10" cx="100.09" cy="77.98" r="2.79"/><circle class="cls-10" cx="168.99" cy="77.98" r="2.79"/><path class="cls-4" d="M42.49,234s6.24,7.82,8,11.25,5.28,13.34,5.28,13.34,13.71-4.54,17-8.15A103.57,103.57,0,0,0,80,240.57S64.39,234.64,62,231.68s-7.23-9.26-7.23-9.26L42.49,234"/><path class="cls-11" d="M153.82,157.95c-1.23-.19-2.45-.39-3.68-.59a10.22,10.22,0,0,1-4.6-1.57c-1.3-1-2.07-2.9-1.24-4.32a23.78,23.78,0,0,1-13.52.84,11.52,11.52,0,0,1,6.33-9.19,34.39,34.39,0,0,1-15.69,2.65c.14-6.1,6.66-9.87,12.51-11.6,11.34-3.35,23.37-3.72,34.76-6.88,8.74-2.42,17.49-7.08,22.77-14.18-5.86,4.05-14.06,8.2-25.73,10.9a1.11,1.11,0,0,1-1.36-1.06c-.26-10.63-4.53-28.46-30.19-28.46-24.2,0-28.56,19.31-29.31,27.62a1.11,1.11,0,0,1-1.39,1A86,86,0,0,1,70,106.65a24.51,24.51,0,0,0-3.38-2.38c-1.14,2.85-2.52,16,5.19,28.47,5.38,8.71,16.28,18.64,38.25,23.31a1.05,1.05,0,0,1,.19-.1,1.11,1.11,0,0,1,1.19.39,139.55,139.55,0,0,0,27.06,2.4A140.49,140.49,0,0,0,153.82,157.95ZM117.7,124.82c0-.64,0-1.35-.07-2.08-.18-3.52-.41-7.9,2.71-11.19,2.71-2.85,7.39-4.24,14.32-4.24,6.61,0,11.61,1.71,14.87,5.08,3.73,3.86,4.36,9,4.23,12.72a1.11,1.11,0,0,1-1,1.07,145.36,145.36,0,0,1-15.68.83,151.69,151.69,0,0,1-18.41-1.08A1.11,1.11,0,0,1,117.7,124.82Z"/><path class="cls-8" d="M96.55,111.29a37.64,37.64,0,0,1-.64-28.1c0-.32-.06-.64-.06-1,0-5,2.61-9,5.82-9l.15,0a20.08,20.08,0,0,1,3.78-3.18,32.47,32.47,0,0,1,9-3.63q3.6-1,7.25-1.79c-18.54-.29-39.06-1-44.86-2.51-1.71,5-9.1,27-10,39.94,1.07.24,2.35,1.18,4.45,2.8a83.54,83.54,0,0,0,30.31,15.4A57.21,57.21,0,0,1,96.55,111.29Z"/><path class="cls-8" d="M83,183.72c.31-6.05,1-12.17,1.61-17a1.06,1.06,0,0,1-.16.07,18.83,18.83,0,0,1-3.61.29,52.53,52.53,0,0,1-5.65-.37A43.65,43.65,0,0,0,76,184.41a38.09,38.09,0,0,0,6.89-.69Z"/><path class="cls-8" d="M187.44,166.92a140.17,140.17,0,0,1,2.46,22.5,52.58,52.58,0,0,0,12.41,1,39.13,39.13,0,0,0-5.22-23.94,58.21,58.21,0,0,1-7.25.56A22.42,22.42,0,0,1,187.44,166.92Z"/><path class="cls-6" d="M220.92,13.9a27.34,27.34,0,0,1,4,6.75,37.65,37.65,0,0,0,.69-7.61c-.1-5.5-1.39-8.87-2.43-10.18A28,28,0,0,1,220.92,13.9Z"/><path class="cls-6" d="M219.88,16.17a37.2,37.2,0,0,1-3.62,5.8,53.89,53.89,0,0,1-9.36,9.3,46.42,46.42,0,0,1,4,11.86A35.85,35.85,0,0,0,224,24.41,30.82,30.82,0,0,0,219.88,16.17Z"/><path class="cls-6" d="M198.32,49.71a47.92,47.92,0,0,0,10.94-5.41,1.09,1.09,0,0,1-.53-.74,43.64,43.64,0,0,0-3.65-10.89c-1.69,1.27-3.42,2.48-5.17,3.65a43.27,43.27,0,0,1-5.44,3.19c.79,1.62,1.15,2.62,1.17,2.68a1.1,1.1,0,0,1-.23,1.08C196.83,44.43,197.8,46.89,198.32,49.71Z"/><path class="cls-6" d="M48.39,3.09c-1,1.47-2.16,4.78-2.25,10a38.34,38.34,0,0,0,1.79,12,24.74,24.74,0,0,1,4.46-6.57A34.78,34.78,0,0,1,48.39,3.09Z"/><path class="cls-6" d="M62.42,44.25A45.76,45.76,0,0,1,66.3,32.9,34.6,34.6,0,0,1,53.53,20.48a20.51,20.51,0,0,0-4.36,7.58,1,1,0,0,1-.06.14A36,36,0,0,0,62.42,44.25Z"/><path class="cls-6" d="M76.55,43.27l.19,0a1.08,1.08,0,0,1,0-.68,35.87,35.87,0,0,1,2.12-4.67c-3.52-1.29-7.14-2.39-10.54-4a43.32,43.32,0,0,0-3.84,11.53s0,.05,0,.08a48.84,48.84,0,0,0,8.06,3.83,11.52,11.52,0,0,1,.59-3C74,44.06,75.45,43.41,76.55,43.27Z"/><path class="cls-12" d="M105.06,31.85c-1.6-1.52-3.28-3.16-3.86-5.29-.73-2.64.38-5.44,1.8-7.79a28.88,28.88,0,0,1,2.6-3.56C86.3,24.55,79.68,41,78.91,43c7.25-.64,21.22-1.13,36.8-1.42,0,0,0-.06,0-.09,0-.6.11-1.2.17-1.8C111.87,38.06,108.28,34.9,105.06,31.85Z"/><path class="cls-12" d="M193.41,42.59a52.27,52.27,0,0,0-13.53-18.53,11.21,11.21,0,0,1-1.75,8.21c-3.3,4.67-9.49,6.54-15.2,6.24l-1.43-.07c.08.91.14,1.84.16,2.79a1,1,0,0,1,0,.12C178.65,41.45,189.29,41.87,193.41,42.59Z"/><path class="cls-12" d="M138.38,81.64a16,16,0,0,1-2.2-16.81c-3.24,0-6.74-.06-10.37-.1l0,0c2.19,4.48,8.54,16.52,11.61,18.47a.54.54,0,0,0,.3,0,4.12,4.12,0,0,0,1.4-.76C138.89,82.19,138.63,81.92,138.38,81.64Z"/><path class="cls-11" d="M158.92,59.22C146,59.1,133.13,57.9,120.3,56.5c-10.36-1.13-20.86-2.43-30.49-6.42-2-.81-4-1.9-4.8-3.87a3,3,0,0,1-.17-1.36c-3.4.19-6.15.41-8,.64-.7.09-1.26.66-1.65,1.71a11,11,0,0,0-.53,3.65s0,0,0,0c0,3.41,1,7.42,2.51,9.15,2.37,1.47,33.74,2.64,72.88,2.64h0c26.9,0,43-.57,44.47-1.1.73-.33,1.64-1.85,1.94-5.07a23.76,23.76,0,0,0,0-4.43,61.22,61.22,0,0,1-7.65,3.35C179.24,58.73,169,59.32,158.92,59.22Z"/><path class="cls-11" d="M149.93,41.29l9.5,0s0,0,0-.06a36.87,36.87,0,0,0-.63-6,37.18,37.18,0,0,1-4.31,1.54,37.18,37.18,0,0,1-10.12,2.07,19.2,19.2,0,0,1-16.88-9.94,19.2,19.2,0,0,1,1.15-19.55l-.17-.3h-.09s0,.05,0,.08-9.34,17-10.41,32.41C128.5,41.38,139.69,41.29,149.93,41.29Z"/><path class="cls-8" d="M112.45,158.77c1.5,3.54,5.38,10.68,13.26,14.1a8.77,8.77,0,0,1,.49-3.39c1.2-2.73,4.71-3.34,7.67-3.7a114.19,114.19,0,0,0,20.66-4.47,31.28,31.28,0,0,0,4.2-1.6l.07-.15a137.22,137.22,0,0,1-20.25,1.4A143.64,143.64,0,0,1,112.45,158.77Z"/><path class="cls-13" d="M69.34,199.07q-5.76,7.58-11.75,15c-5.8,7.13-12.16,14.41-20.79,17.58-.7.26-1.43.49-2.15.73a11.63,11.63,0,0,0,5,1.89.82.82,0,0,0,.22,0c1.22-.83,28.76-24.5,31.56-30.56a2.8,2.8,0,0,0-.1-2.86A5.43,5.43,0,0,0,69.34,199.07Z"/><path class="cls-14" d="M17.62,213.82a33.88,33.88,0,0,0-2.46,6.67c7.12,1.57,14.91,3.45,17.93,4.73,2.55-2.9,6.92-7.33,13.74-14.08-.73-.77-8.6-9.25-12.64-19.2A66.43,66.43,0,0,0,17.62,213.82Z"/><path class="cls-14" d="M62,231.68c-2.41-3-7.23-9.26-7.23-9.26L42.49,234s6.24,7.82,8,11.24c.5,1,1.13,2.46,1.79,4.09l8.39-4.08A28.84,28.84,0,0,0,66.21,242a25.15,25.15,0,0,0,4.6-5.24C66.94,235,63.08,233,62,231.68Z"/><path class="cls-11" d="M135.08,182.56a13.91,13.91,0,0,1-5.19-6.09c-13.25-2.69-18.71-14.73-20-18.2q-3.92-.82-7.41-1.85c1,5.24,6.62,27.54,33,28.16,1.09,0,2.14,0,3.16,0A24.15,24.15,0,0,1,135.08,182.56Z"/><path class="cls-15" d="M136.49,186.81h-1.12c-30.69-.73-35.11-29.95-35.27-31.12-13.8-4.52-22.26-11.32-27.45-18a1.09,1.09,0,0,1-.23,1c-.11.12-10.77,11.77-13.56,22.68,4.12,1,19.14,4.32,25.14,3.13a1.09,1.09,0,0,1,.86.18c.6-4.38,1.12-7.37,1.18-7.72a1.09,1.09,0,0,1,1.29-.9,1.11,1.11,0,0,1,.9,1.29c0,.25-4.32,25.08-2.9,39.64.14,1.45,1.58,2.82,4.29,4.07,6.23,2.89,17.54,4.5,30.26,5.24.82-4.33,2.41-8.85,6.07-11.28,2.71-1.8,6.1-2.12,9.27-2.85a35.2,35.2,0,0,0,15.36-8A37.53,37.53,0,0,1,136.49,186.81Z"/><path class="cls-16" d="M140.47,209.17c-20.58,0-42.3-1.61-51.81-6a16.11,16.11,0,0,1-2.55-1.46c-.24,7.21-1,40.47,5.35,48.93,2.28.25,12.48,1.33,15.78.92,1.82-.78,4.93-13.34,6.43-19.38,2.18-8.79,2.54-9.83,3.55-10.17.62-.2,2.16-.13,8.53.26,9,.55,24,1.48,30.42.19a1.12,1.12,0,0,1,1.29.79c2.59,9.25,7.56,24.67,9.84,26.63,1.6,1.37,5.57,1.75,9.33,1.67A33.73,33.73,0,0,1,165.8,236a19.07,19.07,0,0,1-1.06-5.73,16.56,16.56,0,0,1,1.51-6.73,21.94,21.94,0,0,1,11.29-11.19c2.26-1,4.7-1.57,7-2.36,0-1.4,0-2.78-.06-4.11C178.4,207.73,160,209.17,140.47,209.17Z"/><path class="cls-6" d="M187.86,213.69a11.67,11.67,0,0,0,3.31,3.09c0-2.22.41-10.6,3.86-13.07a4.06,4.06,0,0,1,3.27-.68l3.3-10.35c-.47,0-1,0-1.41,0a54.46,54.46,0,0,1-10.28-1c-.1,6-1,11-3.18,13,0,2.66.08,5.54.14,8.51A1.1,1.1,0,0,1,187.86,213.69Z"/><path class="cls-6" d="M197.1,218.59c-.54-2.63,3.14-4.26,5.71-3.48a2.75,2.75,0,0,0,1.94.18c.7-.33.88-1.22,1-2,.26-2.56.3-5.3-.94-7.56S200.7,202,198.4,203a5.59,5.59,0,0,1,2.25,1.15c2.2,1.8,3.78,5.43,2.35,8.63a1.11,1.11,0,1,1-2-.9c.94-2.11-.14-4.71-1.73-6a2.37,2.37,0,0,0-2.92-.4c-2.14,1.53-2.93,8-2.93,11.71a1.09,1.09,0,0,1-.22.63,18.43,18.43,0,0,0,4.18,1.31A2.57,2.57,0,0,1,197.1,218.59Z"/><path class="cls-6" d="M82.87,186a41,41,0,0,1-7.42.69l-.93,0,1.4,6.75c.26,1.24.44,2.73-.48,3.59a4.32,4.32,0,0,1-1.84.8,12.2,12.2,0,0,0-1.52.55,6.43,6.43,0,0,1,1.13,1.28,5,5,0,0,1,.24,5,30.49,30.49,0,0,1-4.89,6.24,17.48,17.48,0,0,0,14.81-5.92,1.09,1.09,0,0,1,.42-.29c.06-2.49.13-4.12.14-4.43a1.09,1.09,0,0,1,.12-.44,5,5,0,0,1-1-2.46A87.33,87.33,0,0,1,82.87,186Z"/><path class="cls-6" d="M187.13,265.21a17.55,17.55,0,0,1-8.46-3.52,8.51,8.51,0,0,1-3.06-8A27,27,0,0,1,169,253c-.69,7.74-.1,15,1.29,15.58,3,1.29,22.76,6,26.72-1.44a4.43,4.43,0,0,0,.41-3.18,12.31,12.31,0,0,1-4.38,1.51A18.92,18.92,0,0,1,187.13,265.21Z"/><path class="cls-6" d="M106.35,253.83l-1.12,0c-1.55,0-3.46-.1-5.37-.23a17.33,17.33,0,0,1-7.08,11.56,18.08,18.08,0,0,1-14,2.73c4.9,6.36,23.27,1.94,26.17.69C106.47,268,106.87,260.54,106.35,253.83Z"/><path class="cls-17" d="M184.53,26.69s15.84-1.67,25-9.17A41,41,0,0,0,221.77,1.4a82.11,82.11,0,0,1-19.17,15,60.9,60.9,0,0,1-21.68,6.67Z"/><path class="cls-17" d="M49.29,2.24S59.2,23.07,88.38,26.41l2.78-2.5S64.67,18.91,49.29,2.24Z"/><path class="cls-17" d="M105.6,15.21a96.15,96.15,0,0,1,39.47-3.81c22,2.5,35.85,11.67,35.85,11.67S147.55-5.72,105.6,15.21Z"/><path class="cls-17" d="M117.56,43.91s73.64,2.22,75,2.5,4.45,2.5,4.45,2.5l-3.09-4S127.84,39.75,117.56,43.91Z"/><path class="cls-17" d="M141.27,80.46c3.44-3.71,7.94-10.39,11.09-15.58H151C149.26,67.77,144.73,75.27,141.27,80.46Z"/><path class="cls-17" d="M191.7,64.1c1.88,4.85,8.52,22.51,10.77,36.09a5.75,5.75,0,0,1,1.28-1c-1.88-13.78-8.06-31.34-9.53-35.38C193.59,63.94,192.72,64,191.7,64.1Z"/><path class="cls-17" d="M164.25,156.29c23.15-4.93,33.49-16.48,38.06-26.55,5.86-12.91,3.49-26,2.19-28.42-.31.25-.86.82-1.44,1.43C204.31,108.1,210.08,141.53,164.25,156.29Z"/><path class="cls-17" d="M198.14,140.47c2.5,3.48,8.74,12.51,12.54,21.24l1.12-.26c-2.38-9.32-10.49-19.16-12.87-21.91C198.69,139.86,198.4,140.16,198.14,140.47Z"/><path class="cls-17" d="M208.51,189.56c.33-.08.66-.16,1-.26a1.09,1.09,0,0,1,.64,0,57.15,57.15,0,0,0,0-25.18s0,0,0,0l-1.22.27C209.41,168.33,210.48,179.41,208.51,189.56Z"/><path class="cls-17" d="M208.14,217.57a8.64,8.64,0,0,0,3.49-4.15c3.58-9-3.13-16.73-3.2-16.8a1.11,1.11,0,0,1-.2-1.14c.51-1.3.93-2.6,1.3-3.89-.78.21-1.57.39-2.36.53-.47,1.4-1.16,3.62-1,4.37.28,1.11,5,3.61,3.89,14.73A17,17,0,0,1,208.14,217.57Z"/><path class="cls-17" d="M182.58,248.72c0,.87-1,1.77-2.39,2.59a23.56,23.56,0,0,0,3.7-.61,1.09,1.09,0,0,1,.29-.1c1.36-1.71.93-18.85.62-31.38-.08-3.16-.16-6.28-.21-9.26h0S182.58,245.94,182.58,248.72Z"/><path class="cls-17" d="M183.1,253.13a134,134,0,0,1,14.16,10.29v0c-1.81-5.16-10.93-9.61-12.91-10.52C184,253,183.58,253,183.1,253.13Z"/><path class="cls-17" d="M32,178.49c-6.87,3.6-28.81,16.84-29.78,39.28L3.6,218c2.41-9.56,9.24-26.46,28.26-36.47A18.93,18.93,0,0,1,32,178.49Z"/><path class="cls-17" d="M80,240.57l-1.85-.72c-6.29,9.93-17.37,14.21-23.44,15.88.61,1.65,1,2.81,1,2.81s13.71-4.54,17-8.15A103.55,103.55,0,0,0,80,240.57Z"/><ellipse class="cls-18" cx="101.67" cy="82.22" rx="5.82" ry="8.98"/><circle class="cls-17" cx="100.09" cy="77.98" r="2.79"/><ellipse class="cls-18" cx="170.57" cy="82.22" rx="5.82" ry="8.98"/><circle class="cls-17" cx="168.99" cy="77.98" r="2.79"/><path class="cls-18" d="M150,64.88h0c-16.77,0-71.71-.24-74.54-3.38s-4-10.91-2.41-15.08c.88-2.35,2.37-3,3.46-3.14,10.16-1.24,45.29-2,73.39-2,28.33,0,43.57.61,45.29,1.82,2.72,1.91,3.9,8.53,3.43,13.58-.24,2.58-1,5.88-3.25,6.9C192.7,64.82,157.14,64.88,150,64.88Zm-.1-21.37c-28,0-63,.74-73.12,2-.7.09-1.26.66-1.65,1.71-1.29,3.43-.21,10.38,2,12.82,2.37,1.47,33.74,2.64,72.88,2.64h0c26.9,0,43-.57,44.47-1.1.73-.33,1.64-1.85,1.94-5.07.44-4.73-.78-10.35-2.5-11.56C192.64,44.29,180.29,43.51,149.93,43.51Z"/><path class="cls-18" d="M77.77,44a1.09,1.09,0,0,1-.35-.06,1.11,1.11,0,0,1-.71-1.4C76.84,42.21,89.16,6.51,136,6.51s59.52,35.33,59.64,35.69a1.11,1.11,0,0,1-2.1.72c-.12-.34-12.34-34.19-57.54-34.19S78.94,42.92,78.83,43.27A1.11,1.11,0,0,1,77.77,44Z"/><path class="cls-18" d="M198.22,52a1.11,1.11,0,0,1-.36-2.16c26.18-9,27.85-30.46,27.74-36.83-.12-6.92-2.14-10.51-3.15-10.81-.27-.09-.59.32-.76.56-12,17.26-38.9,21.75-40,21.93a1.11,1.11,0,0,1-.35-2.2c.27,0,27.1-4.53,38.56-21,1.24-1.79,2.67-1.6,3.23-1.42,2.66.81,4.61,6.12,4.73,12.9.24,13.91-7.31,31.45-29.25,39A1.1,1.1,0,0,1,198.22,52Z"/><path class="cls-18" d="M73.52,52a1.1,1.1,0,0,1-.36-.06C51.23,44.46,43.67,26.92,43.92,13,44,6.22,46,.92,48.64.11c.56-.17,2-.37,3.23,1.42,11.47,16.49,38.29,21,38.56,21a1.11,1.11,0,0,1,.92,1.27,1.12,1.12,0,0,1-1.27.92c-1.14-.18-28-4.67-40-21.93-.17-.24-.49-.65-.76-.56-1,.3-3,3.9-3.15,10.82C46,19.42,47.7,40.91,73.88,49.88A1.11,1.11,0,0,1,73.52,52Z"/><path class="cls-18" d="M138.54,161C95.69,161,77.6,146.25,70,133.91c-8.55-13.83-6.51-28.21-5.2-30.84A1.85,1.85,0,0,1,66.45,102c1.18,0,2.52,1,5,2.9a83.63,83.63,0,0,0,31.38,15.71c1.15-9.47,6.55-28.33,31.39-28.33,27.23,0,31.79,19.47,32.35,29.26,20.63-5.08,29.76-14.82,34.2-19.55,1.88-2,2.82-3,4-3a1.68,1.68,0,0,1,.94.28c2.14,1.42,4.44,13.76.72,26C201.42,141.57,185.66,161,138.54,161ZM66.67,104.28c-1.14,2.85-2.52,16,5.19,28.47,7.33,11.86,24.85,26,66.68,26s57.77-15.77,63.77-29c5.86-12.91,3.49-26,2.19-28.42-.44.35-1.34,1.32-2.15,2.18-4.68,5-14.42,15.37-36.63,20.51a1.11,1.11,0,0,1-1.36-1.06c-.26-10.63-4.53-28.46-30.19-28.46-24.2,0-28.56,19.31-29.31,27.62a1.11,1.11,0,0,1-1.39,1A86,86,0,0,1,70,106.65,24.51,24.51,0,0,0,66.67,104.28ZM137.09,127a151.69,151.69,0,0,1-18.41-1.08,1.11,1.11,0,0,1-1-1.1c0-.64,0-1.35-.07-2.08-.18-3.52-.41-7.9,2.71-11.19,2.71-2.85,7.39-4.24,14.32-4.24,6.61,0,11.61,1.71,14.87,5.08,3.73,3.86,4.36,9,4.23,12.72a1.11,1.11,0,0,1-1,1.07A145.36,145.36,0,0,1,137.09,127Zm-17.19-3.17a151.94,151.94,0,0,0,31.64.24c0-3.14-.74-7.15-3.61-10.13s-7.29-4.4-13.27-4.4c-6.2,0-10.48,1.19-12.71,3.55-2.46,2.59-2.27,6.28-2.1,9.54C119.87,123,119.89,123.44,119.9,123.83Z"/><path class="cls-18" d="M65.76,104.68h0a1.11,1.11,0,0,1-1.07-1.15c.49-14.56,10.2-42,10.62-43.15a1.1,1.1,0,0,1,1.42-.67,1.11,1.11,0,0,1,.67,1.42c-.1.28-10,28.26-10.49,42.48A1.11,1.11,0,0,1,65.76,104.68Z"/><path class="cls-18" d="M205,101.29a1.11,1.11,0,0,1-1.1-1C202,84.61,194,63.18,193.91,63a1.11,1.11,0,1,1,2.08-.78c.08.22,8.2,21.9,10.13,37.86a1.11,1.11,0,0,1-1,1.24Z"/><path class="cls-18" d="M80.81,167.06c-8.65,0-22.87-3.52-23.56-3.7a1.11,1.11,0,0,1-.82-1.3c2.46-11.81,13.86-24.26,14.34-24.79a1.11,1.11,0,0,1,1.63,1.51c-.11.12-10.77,11.77-13.56,22.68,4.12,1,19.14,4.32,25.14,3.13a1.11,1.11,0,0,1,.44,2.18A18.83,18.83,0,0,1,80.81,167.06Z"/><path class="cls-18" d="M189.85,167.06a18.81,18.81,0,0,1-3.61-.29,1.11,1.11,0,0,1-.87-1.31,1.13,1.13,0,0,1,1.31-.87c6,1.2,21-2.15,25.14-3.13-2.79-10.91-13.45-22.56-13.56-22.68a1.11,1.11,0,1,1,1.63-1.51c.48.52,11.88,13,14.34,24.79a1.11,1.11,0,0,1-.82,1.3C212.72,163.53,198.5,167.06,189.85,167.06Z"/><path class="cls-18" d="M140.47,209.17c-20.58,0-42.3-1.61-51.81-6-3.47-1.61-5.34-3.58-5.56-5.87C81.64,182.43,85.84,158.08,86,157a1.09,1.09,0,0,1,1.29-.9,1.11,1.11,0,0,1,.9,1.29c0,.25-4.32,25.08-2.9,39.64.14,1.45,1.58,2.82,4.29,4.07,19.78,9.17,90.66,5.44,95.38,2.17,5.94-4.11.68-39.13-2.34-46.43a1.11,1.11,0,1,1,2.05-.85c3,7.18,9.22,43.8,1.55,49.1C183,207.35,162.4,209.17,140.47,209.17Z"/><path class="cls-18" d="M39.65,236.46c-2.68,0-9.57-3.15-9.57-6.62,0-1.85,4.45-6.56,17.83-19.77,5.8-5.73,11.29-11.14,12.44-12.87.69-1,2.15-1.6,4.11-1.6,3.07,0,7.06,1.37,8.74,4a5,5,0,0,1,.24,5C70.39,211.21,42.32,235.24,41,236.1A2.43,2.43,0,0,1,39.65,236.46Zm24.81-38.64c-1.28,0-2.05.31-2.26.61-1.28,1.92-6.58,7.16-12.73,13.22-6.65,6.57-16.7,16.49-17.18,18.29,0,1.49,5.08,4.29,7.35,4.29a.82.82,0,0,0,.22,0c1.22-.83,28.76-24.5,31.56-30.56a2.8,2.8,0,0,0-.1-2.86C70.14,198.93,66.9,197.82,64.46,197.82Z"/><path class="cls-18" d="M33.13,227.56a1.1,1.1,0,0,1-.5-.12C28,225.11,1.17,219.83.9,219.77a1.11,1.11,0,0,1-.9-1.11c.49-28.52,32.85-43.07,33.17-43.21a1.11,1.11,0,0,1,1.51,1.34c-4.13,13.78,13.63,32.69,13.81,32.88a1.11,1.11,0,0,1-1.61,1.53c-.73-.77-17-18.12-14.85-32.71-6.87,3.6-28.81,16.84-29.78,39.28,4.89,1,26.91,5.44,31.38,7.68a1.11,1.11,0,0,1-.5,2.11Z"/><path class="cls-18" d="M55.45,259.58a1.11,1.11,0,0,1-1.1-1c-1.4-10.24-11.9-23-12-23.1a1.11,1.11,0,1,1,1.7-1.43c.41.49,10.29,12.48,12.3,23,3.73-1,15.85-5.05,22.69-16-4.81-1.84-21.54-8.73-24.63-16.67a1.11,1.11,0,0,1,2.07-.81c3.17,8.16,24.35,15.78,24.57,15.85a1.11,1.11,0,0,1,.59,1.59c-8.4,14.83-25.27,18.35-26,18.49Z"/><path class="cls-18" d="M55.94,203.78a1.11,1.11,0,0,1-1.07-.83c-1.77-6.62,3.62-13.36,5.5-15.46-4.83-8.31-.82-23.74-.65-24.41a1.11,1.11,0,1,1,2.15.57c0,.16-4.17,16.09.81,23.35a1.11,1.11,0,0,1-.13,1.42c-.07.07-7.29,7.4-5.54,14a1.11,1.11,0,0,1-.79,1.36A1.19,1.19,0,0,1,55.94,203.78Z"/><path class="cls-19" d="M69.52,209.95"/><path class="cls-18" d="M105.23,253.86c-5.11,0-14-1-14.49-1.07a1.11,1.11,0,0,1-.72-.39c-8-9.44-6.16-50.45-6.08-52.2a1.11,1.11,0,0,1,2.22.1c0,.41-1.79,40.87,5.3,50.33,2.28.25,12.48,1.33,15.78.92,1.82-.78,4.93-13.34,6.43-19.38,2.18-8.79,2.54-9.83,3.55-10.17.62-.2,2.16-.13,8.53.26,9,.55,24,1.48,30.42.19a1.12,1.12,0,0,1,1.29.79c2.59,9.25,7.56,24.67,9.84,26.63,3,2.53,14.06,1.7,16.88.76,1.37-1.65.94-18.84.63-31.4-.13-5.25-.26-10.45-.29-15a1.11,1.11,0,0,1,1.1-1.12h0a1.11,1.11,0,0,1,1.11,1.11c0,4.53.16,9.71.29,14.95.63,25.24.43,32.71-2.14,33.56s-15.08,2.2-19-1.18c-3.27-2.8-8.84-21.76-10.26-26.75-7.08,1.08-20.77.24-30-.33-3.25-.2-6.35-.39-7.43-.37-.51,1.17-1.48,5.09-2.35,8.59-3.61,14.57-5.56,20.71-8.31,21.05A19.48,19.48,0,0,1,105.23,253.86Z"/><path class="cls-18" d="M70.08,213.13a14.41,14.41,0,0,1-2.19-.14,1.11,1.11,0,0,1,.35-2.19,17.47,17.47,0,0,0,15.13-5.87A1.11,1.11,0,0,1,85,206.38,19.68,19.68,0,0,1,70.08,213.13Z"/><path class="cls-18" d="M200.78,221.74c-6,0-11.92-2.68-14.75-6.8a1.11,1.11,0,1,1,1.83-1.26c2.73,4,9,6.39,14.8,5.73,2.57-.28,7.14-1.44,9-6,3.58-9-3.13-16.73-3.2-16.8a1.11,1.11,0,0,1-.2-1.14c6.09-15.46,1.95-31.17,1.9-31.32a1.11,1.11,0,0,1,2.14-.58c.18.66,4.29,16.16-1.74,32.11,1.59,2.06,6.72,9.67,3.16,18.57-1.64,4.11-5.57,6.8-10.78,7.38A19.28,19.28,0,0,1,200.78,221.74Z"/><path class="cls-18" d="M192.28,218.34a1.11,1.11,0,0,1-1.11-1.11c0-1.1.11-10.84,3.86-13.52,1.68-1.19,3.78-1,5.62.49,2.2,1.8,3.78,5.43,2.35,8.63a1.11,1.11,0,1,1-2-.9c.94-2.11-.14-4.71-1.73-6a2.37,2.37,0,0,0-2.92-.4c-2.14,1.53-2.93,8-2.93,11.71A1.11,1.11,0,0,1,192.28,218.34Z"/><path class="cls-18" d="M89.43,273.47c-5.63,0-11-1.24-13.12-5.26a6.69,6.69,0,0,1-.39-5.55c2.34-6.67,14-11.79,14.52-12a1.11,1.11,0,0,1,.88,2c-.11,0-11.28,4.94-13.31,10.7a4.49,4.49,0,0,0,.26,3.77c4,7.49,23.7,2.73,26.72,1.44,1.56-.67,1.93-8.89,1.27-15.86a1.11,1.11,0,0,1,1-1.21,1.14,1.14,0,0,1,1.21,1c.36,3.83,1.23,16.46-2.61,18.11A52,52,0,0,1,89.43,273.47Z"/><path class="cls-18" d="M185.83,273.47a52,52,0,0,1-16.44-2.82c-3.84-1.65-3-14.28-2.61-18.11a1.11,1.11,0,1,1,2.21.21c-.73,7.84-.14,15.25,1.27,15.86,3,1.29,22.76,6,26.72-1.44a4.5,4.5,0,0,0,.26-3.77c-2-5.76-13.19-10.65-13.3-10.7a1.11,1.11,0,0,1,.88-2c.5.21,12.18,5.33,14.52,12a6.69,6.69,0,0,1-.4,5.55C196.83,272.22,191.46,273.47,185.83,273.47Z"/><path class="cls-18" d="M137.56,85.47a2.41,2.41,0,0,1-1.31-.37c-4.15-2.64-11.58-17.67-12.41-19.37a1.11,1.11,0,0,1,2-1c2.19,4.48,8.54,16.52,11.61,18.47a.54.54,0,0,0,.3,0c3.28-.79,11.31-12.69,15.61-20a1.11,1.11,0,1,1,1.92,1.12c-1.19,2-11.74,19.77-17,21A3,3,0,0,1,137.56,85.47Z"/><path class="cls-18" d="M136.49,186.81h-1.12c-31.17-.74-35.25-30.87-35.28-31.18a1.11,1.11,0,1,1,2.21-.27c.15,1.16,3.91,28.53,33.13,29.23S169.91,157,170,156.75a1.11,1.11,0,1,1,2.19.38C172.1,157.43,166.66,186.81,136.49,186.81Z"/><path class="cls-18" d="M136.65,122.11a43.24,43.24,0,0,1-12.8-2.21,1.11,1.11,0,0,1,.74-2.1c.13,0,13.3,4.58,20.54.1a1.11,1.11,0,1,1,1.17,1.89A18.36,18.36,0,0,1,136.65,122.11Z"/><path class="cls-18" d="M116.82,42.71h-.08a1.11,1.11,0,0,1-1-1.18c1.08-16,10.31-32.74,10.7-33.44a1.11,1.11,0,0,1,1.94,1.08c-.1.17-9.38,17-10.42,32.51A1.11,1.11,0,0,1,116.82,42.71Z"/><path class="cls-18" d="M160.54,42.34a1.11,1.11,0,0,1-1.11-1.09c-.35-20.1-16.59-31.6-16.75-31.71a1.11,1.11,0,0,1,1.27-1.83c.71.49,17.33,12.24,17.71,33.5a1.11,1.11,0,0,1-1.09,1.13Z"/><path class="cls-18" d="M63.37,46.42h-.15a1.11,1.11,0,0,1-.95-1.25c.08-.59,2.13-14.69,13.42-24.85A1.11,1.11,0,0,1,77.17,22c-10.67,9.6-12.68,23.36-12.7,23.5A1.11,1.11,0,0,1,63.37,46.42Z"/><path class="cls-18" d="M48.08,28.91a1.21,1.21,0,0,1-.26,0A1.11,1.11,0,0,1,47,27.53c.1-.4,2.47-9.74,13.65-15.19a1.11,1.11,0,1,1,1,2C51.38,19.34,49.18,28,49.16,28.06A1.11,1.11,0,0,1,48.08,28.91Z"/><path class="cls-18" d="M209.81,44.47a1.11,1.11,0,0,1-1.09-.91A48,48,0,0,0,196.27,20a1.11,1.11,0,1,1,1.53-1.62,49.41,49.41,0,0,1,13.11,24.78,1.11,1.11,0,0,1-.89,1.3Z"/><path class="cls-18" d="M225.1,25.3a1.11,1.11,0,0,1-1.05-.75c-4.84-14-11.45-12.91-11.51-12.89a1.11,1.11,0,0,1-.47-2.17c.34-.07,8.53-1.7,14.07,14.34a1.11,1.11,0,0,1-1.05,1.47Z"/><path class="cls-18" d="M135.34,177c-19.78,0-25.74-19.5-25.8-19.7a1.11,1.11,0,0,1,2.13-.63c.22.74,5.57,18.1,23.67,18.1s23.73-15.8,24-16.48a1.11,1.11,0,0,1,2.11.71C161.34,159.22,155.08,177,135.34,177Z"/><path class="cls-18" d="M75.45,186.65a39.43,39.43,0,0,1-15.62-3.07,1.11,1.11,0,0,1,.95-2,39.35,39.35,0,0,0,22.1,2.14,1.11,1.11,0,1,1,.43,2.18A40.76,40.76,0,0,1,75.45,186.65Z"/><path class="cls-18" d="M200.18,192.72a53,53,0,0,1-11.47-1.27,1.11,1.11,0,0,1,.53-2.16c.11,0,11.22,2.67,20.27,0a1.11,1.11,0,1,1,.63,2.13A35.67,35.67,0,0,1,200.18,192.72Z"/></g></g></svg>