<?xml version="1.0" encoding="utf-8"?>
<!-- Generator: Adobe Illustrator 21.1.0, SVG Export Plug-In . SVG Version: 6.00 Build 0)  -->
<svg version="1.1" id="Pagina_inicia_Movil" xmlns="http://www.w3.org/2000/svg" xmlns:xlink="http://www.w3.org/1999/xlink"
	 x="0px" y="0px" viewBox="0 0 62.2 62.2" style="enable-background:new 0 0 62.2 62.2;" xml:space="preserve">
<style type="text/css">
	.st0{fill:#BB8844;}
	.st1{fill:#FFFFFF;}
</style>
<title>servicio-1</title>
<circle class="st0" cx="31.1" cy="31.1" r="31.1"/>
<g>
	<path class="st1" d="M45.5,38.4l-0.4-0.9c0.4-0.8,0.7-1.6,0.9-2.5h-0.1l-2.2-1.2h-0.1l-1.7,2h-1.1l-0.9-1.2
		c-0.2-0.3-0.5-0.6-0.8-0.8l-0.5,0.3l-1.1,0.6l-0.6,0.4h-0.1c0.2,0.9,0.5,1.7,0.9,2.5L37,38.5c-1.8,0.2-2.9,0.4-2.9,0.6v2.5
		c0,0.2,1.1,0.4,2.9,0.6v-0.1h0.1l0.6,0.9c-0.4,0.8-0.7,1.6-0.8,2.5H37l2.2,1.3c0.3-0.2,0.6-0.5,0.8-0.8l0.9-1.2H42l0.9,1.2
		c0.2,0.3,0.5,0.6,0.8,0.8l2.2-1.3H46c-0.2-0.9-0.6-1.7-1-2.5l0.5-0.9c1.8-0.2,2.5-0.4,2.5-0.6V39C48,38.8,47.3,38.6,45.5,38.4z
		 M41.4,42.8c-1.3,0-2.3-1.1-2.2-2.4v-0.1c0-0.6,0.3-1.1,0.7-1.5s1-0.7,1.7-0.6c1.3,0,2.3,1.1,2.2,2.4
		C43.8,41.8,42.7,42.8,41.4,42.8z"/>
	<path class="st1" d="M34.1,23.2L34.1,23.2c-0.4-0.5-1-1-1.7-1.7h-0.7l-2.1,1.6l-1.4-0.6l-0.4-2.8c0-0.2-0.1-0.4-0.2-0.5l-0.4-0.4
		h-3.4c-0.3,0.1-0.5,0.4-0.5,0.7c-0.2,1-0.3,2-0.4,3l-1.4,0.6l-2.1-1.6H19c-0.6,0.2-1,0.6-1.4,1.1l-1.5,1.6C16,24.3,16,24.5,16,24.6
		s0,0.3,0.1,0.4l1.6,2.1l-0.6,1.4l-2.8,0.4l-0.2,0.2c-0.1,0.1-0.1,0.3,0,0.4v3.3c0,0.2,0,0.3,0,0.5l0.2,0.2l2.7,0.4
		c0.2,0.5,0.4,1,0.6,1.5l-0.8,1.1l-0.7,0.9C16,37.5,16,37.7,16,37.8c0,0.4,0.9,1.3,2.6,2.9h0.7l2.1-1.6l1.4,0.6l0.4,2.8l0.2,0.4
		l0.4,0.4h3.3c0.3-0.1,0.4-0.3,0.5-0.6c0.1-0.6,0.3-1.7,0.4-3l1.4-0.6l2.1,1.6h0.4c0.6-0.2,1-0.6,1.4-1.1l1.5-1.6
		c0.1-0.1,0.1-0.3,0.1-0.4c0-0.1,0-0.3-0.1-0.4l-1.6-2.1c0.2-0.4,0.4-0.9,0.6-1.4l2.8-0.4l0.4-0.2l0.2-0.4v-3.3L37,29l-0.4-0.2
		l-2.7-0.4l-0.6-1.5l0.8-1.1l0.8-1c0.1-0.1,0.1-0.3,0.1-0.4c0-0.2-0.2-0.6-0.7-1.1C34.2,23.3,34.1,23.2,34.1,23.2z M25.7,35.3
		L25.7,35.3c-2.4,0-4.3-1.9-4.2-4.2c0-2.3,1.9-4.2,4.2-4.1s4.2,1.9,4.1,4.2C29.8,33.4,28,35.3,25.7,35.3z"/>
	<path class="st1" d="M45.5,20l-0.4-0.9c0.4-0.8,0.7-1.6,0.9-2.5h-0.1l-2.2-1.2h-0.1l-1.7,2h-1.1l-0.9-1.2c-0.2-0.3-0.5-0.6-0.8-0.8
		l-0.5,0.3l-1.1,0.6l-0.6,0.4h-0.1c0.2,0.9,0.5,1.7,0.9,2.5L37,20.1c-1.8,0.2-2.9,0.4-2.9,0.6v2.5c0.1,0.1,0.1,0.1,0.2,0.2
		c0.4,0.2,1.3,0.3,2.7,0.5v-0.1h0.1l0.6,0.9c-0.4,0.8-0.7,1.6-0.8,2.5H37l2.2,1.3c0.3-0.2,0.6-0.5,0.8-0.8l0.9-1.2H42l0.9,1.2
		c0.2,0.3,0.5,0.6,0.8,0.8l2.2-1.3H46c-0.2-0.9-0.6-1.7-1-2.5l0.5-0.9c1.8-0.2,2.5-0.4,2.5-0.6v-2.5C48,20.4,47.3,20.2,45.5,20z
		 M41.4,24.4c-1.3,0-2.3-1.1-2.2-2.4v-0.1c0-0.6,0.3-1.1,0.7-1.5s1-0.7,1.7-0.6c1.3,0,2.3,1.1,2.2,2.4
		C43.8,23.4,42.7,24.4,41.4,24.4z"/>
</g>
</svg>
