<?xml version="1.0" encoding="utf-8"?>
<!-- Generator: Adobe Illustrator 21.1.0, SVG Export Plug-In . SVG Version: 6.00 Build 0)  -->
<svg version="1.1" id="Pagina_inicia_Movil" xmlns="http://www.w3.org/2000/svg" xmlns:xlink="http://www.w3.org/1999/xlink"
	 x="0px" y="0px" viewBox="0 0 62.8 62.8" style="enable-background:new 0 0 62.8 62.8;" xml:space="preserve">
<style type="text/css">
	.st0{fill:#BB8844;}
	.st1{fill:#FFFFFF;}
</style>
<title>servicio-3</title>
<circle class="st0" cx="31.4" cy="31.4" r="31.4"/>
<path class="st1" d="M26.5,36.6v-4.9c0-0.2,0.1-0.4,0.2-0.6l0.6-0.2h0.3v-1.6c0-2.1,1.7-3.8,3.8-3.8c2.1,0,3.8,1.7,3.8,3.8v1.6h0.3
	l0.6,0.2c0.1,0.2,0.2,0.4,0.2,0.6v4.9c0,0.2-0.1,0.4-0.2,0.6l-0.6,0.2h-8.2l-0.6-0.2C26.5,37,26.5,36.8,26.5,36.6z M29.2,30.9h4.3
	v-1.6c0-0.6-0.2-1.1-0.6-1.5c-0.4-0.4-0.9-0.6-1.5-0.6c-0.6,0-1.1,0.2-1.5,0.6c-0.4,0.4-0.6,0.9-0.6,1.5v1.6H29.2L29.2,30.9z"/>
<path class="st1" d="M12.1,39.5c-1.1-2.6-1.7-5.4-1.7-8.2c0-2.8,0.6-5.6,1.7-8.2c1.1-2.5,2.6-4.8,4.5-6.7c4-3.9,9.3-6.2,14.9-6.2
	c2.8,0,5.6,0.6,8.2,1.7c2.5,1.1,4.8,2.6,6.7,4.5c3.9,4,6.2,9.3,6.2,14.9c0,2.8-0.6,5.6-1.7,8.2c-1.1,2.5-2.6,4.8-4.5,6.7
	c-4,3.9-9.3,6.1-14.9,6.1c-2.8,0-5.6-0.6-8.2-1.7c-2.5-1.1-4.8-2.6-6.7-4.5C14.7,44.2,13.2,42,12.1,39.5z M15.6,22.8
	c-2.8,5.3-2.8,11.7,0,17l4.5-4.5c-0.4-1.3-0.7-2.6-0.7-3.9c0-1.3,0.3-2.6,0.7-3.9l-4.5-4.6l0,0V22.8z M25.2,24.9
	c-3.5,3.5-3.4,9.2,0.1,12.7s9.2,3.4,12.7-0.1c3.5-3.5,3.4-9.2-0.1-12.7c-1.7-1.7-4-2.6-6.3-2.6C29.2,22.2,26.9,23.2,25.2,24.9
	L25.2,24.9z M23.1,15.3l4.5,4.5c1.3-0.4,2.6-0.7,3.9-0.7c1.3,0,2.6,0.3,3.9,0.7l4.6-4.5c-5.3-2.8-11.7-2.8-17,0.1h0.1V15.3z
	 M23.1,47.2c5.3,2.8,11.7,2.8,17,0l-4.5-4.5c-1.3,0.4-2.6,0.7-3.9,0.7c-1.3,0-2.6-0.3-3.9-0.7L23.1,47.2z M43,35.2l4.5,4.5
	c2.8-5.3,2.8-11.7,0-17L43,27.2C43.9,29.8,43.8,32.6,43,35.2L43,35.2z"/>
</svg>
